<svg width="290" height="111" viewBox="0 0 290 111" fill="none" xmlns="http://www.w3.org/2000/svg">
<line x1="65.3115" y1="97.1195" x2="98.4203" y2="58.3115" stroke="#1D262D" stroke-width="5.01687" stroke-linecap="round"/>
<line x1="65.3115" y1="97.1195" x2="98.4203" y2="58.3115" stroke="#1D262D" stroke-width="5.01687" stroke-linecap="round"/>
<line x1="65.3115" y1="97.1195" x2="98.4203" y2="58.3115" stroke="black" stroke-opacity="0.2" stroke-width="5.01687" stroke-linecap="round"/>
<g clip-path="url(#clip0_118_16104)">
<path d="M47.7102 46.9155L45.2815 49.8419L54.0137 57.0891L56.4425 54.1627L47.7102 46.9155Z" fill="#4E4E4E"/>
<path d="M51.6684 50.202L48.3874 47.4776C48.0349 47.9969 47.6529 48.506 47.2432 49.0006C46.8335 49.4952 46.4018 49.962 45.957 50.4048L49.238 53.1292C49.6759 52.6782 50.1076 52.2114 50.5141 51.7181C50.9282 51.2254 51.3071 50.7175 51.6684 50.202Z" fill="#1D262D"/>
<g opacity="0.5">
<path d="M38.922 53.2551C48.7637 48.8255 53.1511 37.2563 48.7215 27.4146C44.2919 17.5729 32.7227 13.1855 22.881 17.6151C13.0393 22.0447 8.65194 33.6139 13.0816 43.4556C17.5112 53.2973 29.0803 57.6847 38.922 53.2551Z" fill="#DADADA"/>
</g>
<path opacity="0.5" d="M15.6088 39.8989C15.4508 40.0893 15.2298 40.2317 14.9688 40.2914C14.3397 40.435 13.7128 40.0413 13.5691 39.4121C13.2893 38.191 13.1374 36.9338 13.1223 35.6807C13.1142 35.0343 13.6292 34.5016 14.2756 34.4934C14.922 34.4853 15.4547 35.0003 15.4628 35.6467C15.4797 36.7385 15.6093 37.8294 15.8512 38.8904C15.9352 39.2586 15.8333 39.6275 15.6088 39.8989Z" fill="white"/>
<path opacity="0.5" d="M30.1437 52.7079C29.9041 52.9963 29.53 53.1665 29.1269 53.1256C25.5906 52.7761 22.2747 51.3903 19.5348 49.1192C18.1523 47.9704 16.9555 46.6274 15.9823 45.1302C15.6286 44.588 15.7826 43.8627 16.3261 43.5122C16.8683 43.1585 17.5936 43.3125 17.9441 43.8559C18.7882 45.1562 19.8267 46.321 21.0289 47.3188C23.4062 49.2921 26.2841 50.4939 29.3538 50.7985C29.9955 50.8616 30.4669 51.4337 30.4052 52.0787C30.383 52.3174 30.2898 52.5332 30.1437 52.7079Z" fill="white"/>
<path d="M12.5898 20.2359C4.1952 30.3492 5.58915 45.3508 15.7011 53.7422C25.8143 62.1368 40.8159 60.7429 49.2105 50.6297C57.6052 40.5164 56.2112 25.5148 46.098 17.1202C35.986 8.72878 20.9813 10.124 12.5898 20.2359ZM45.9365 47.9134C39.0441 56.2193 26.7232 57.3605 18.4217 50.47C10.1159 43.5777 8.97154 31.258 15.8639 22.9522C22.7562 14.6463 35.0759 13.502 43.3786 20.3956C51.6826 27.2923 52.8257 39.6088 45.9365 47.9134Z" fill="#363636"/>
<path d="M57.3798 53.0371L53.0813 58.2164L78.9465 79.683L83.245 74.5037L57.3798 53.0371Z" fill="#1D262D"/>
<path d="M54.5495 56.4433L53.698 57.4692L79.5632 78.9358L80.4146 77.9099L54.5495 56.4433Z" fill="#363636"/>
<path d="M57.3784 53.0378L55.9658 54.7399L81.831 76.2065L83.2436 74.5044L57.3784 53.0378Z" fill="#1D262D"/>
<line x1="82.7103" y1="76.9826" x2="102.778" y2="93.2874" stroke="black" stroke-width="3.76265"/>
<line x1="71.0242" y1="69.9417" x2="103.634" y2="96.2803" stroke="#363636" stroke-width="2.50843"/>
</g>
<line x1="63.801" y1="62.897" x2="92.3172" y2="86.1324" stroke="#1D262D" stroke-width="6.89819" stroke-linecap="round"/>
<path d="M114.736 93.0705V57.7016H128.733C132.546 57.7016 135.455 58.6214 137.462 60.4609C139.502 62.3004 140.522 64.9259 140.522 68.3374C140.522 71.7154 139.502 74.3409 137.462 76.2138C135.455 78.0534 132.546 78.9731 128.733 78.9731H118.85V93.0705H114.736ZM118.85 75.5115H128.231C133.716 75.5115 136.459 73.1201 136.459 68.3374C136.459 63.5212 133.716 61.1131 128.231 61.1131H118.85V75.5115ZM151.5 93.0705V57.7016H155.614V89.4584H173.624V93.0705H151.5ZM196.794 93.522C193.516 93.522 190.657 92.7862 188.215 91.3146C185.807 89.8096 183.934 87.7025 182.596 84.9934C181.292 82.2843 180.64 79.0735 180.64 75.361C180.64 71.6485 181.292 68.4377 182.596 65.7286C183.901 63.0195 185.757 60.9291 188.165 59.4575C190.607 57.9859 193.483 57.2501 196.794 57.2501C200.139 57.2501 203.015 57.9859 205.423 59.4575C207.865 60.9291 209.738 63.0195 211.042 65.7286C212.38 68.4043 213.049 71.5983 213.049 75.3108C213.049 79.0233 212.38 82.2508 211.042 84.9934C209.704 87.7025 207.814 89.8096 205.373 91.3146C202.965 92.7862 200.105 93.522 196.794 93.522ZM196.794 89.8597C200.573 89.8597 203.5 88.5888 205.574 86.0469C207.647 83.505 208.684 79.9431 208.684 75.361C208.684 70.7789 207.647 67.2337 205.574 64.7252C203.5 62.1833 200.573 60.9124 196.794 60.9124C193.082 60.9124 190.189 62.1833 188.115 64.7252C186.041 67.2337 185.004 70.7789 185.004 75.361C185.004 79.9096 186.041 83.4716 188.115 86.0469C190.189 88.5888 193.082 89.8597 196.794 89.8597ZM225.42 93.0705V57.7016H239.417C243.23 57.7016 246.14 58.5879 248.147 60.3605C250.187 62.1332 251.207 64.6583 251.207 67.936C251.207 70.5448 250.488 72.6853 249.05 74.3576C247.645 76.0299 245.638 77.1169 243.03 77.6186C244.568 78.1537 245.889 79.4581 246.993 81.5317L253.214 93.0705H248.699L242.578 81.7324C241.809 80.3277 240.923 79.3745 239.919 78.8728C238.916 78.3711 237.595 78.1203 235.956 78.1203H229.534V93.0705H225.42ZM229.534 74.8593H238.815C244.367 74.8593 247.143 72.5515 247.143 67.936C247.143 63.3874 244.367 61.1131 238.815 61.1131H229.534V74.8593ZM263.997 93.0705V57.7016H286.322V61.1632H268.011V73.4044H285.269V76.866H268.011V89.6089H286.322V93.0705H263.997Z" fill="#1E1E1E"/>
<path d="M114.736 93.0705H114.109C114.109 93.4169 114.389 93.6976 114.736 93.6976V93.0705ZM114.736 57.7016V57.0745C114.389 57.0745 114.109 57.3553 114.109 57.7016H114.736ZM137.462 60.4609L137.038 60.9232L137.042 60.9266L137.462 60.4609ZM137.462 76.2138L137.886 76.6761L137.886 76.6758L137.462 76.2138ZM118.85 78.9731V78.346C118.503 78.346 118.222 78.6268 118.222 78.9731H118.85ZM118.85 93.0705V93.6976C119.196 93.6976 119.477 93.4169 119.477 93.0705H118.85ZM118.85 75.5115H118.222C118.222 75.8578 118.503 76.1386 118.85 76.1386V75.5115ZM118.85 61.1131V60.486C118.503 60.486 118.222 60.7667 118.222 61.1131H118.85ZM115.363 91.8074C115.363 91.461 115.082 91.1802 114.736 91.1802C114.389 91.1802 114.109 91.461 114.109 91.8074H115.363ZM114.109 89.281C114.109 89.6273 114.389 89.9081 114.736 89.9081C115.082 89.9081 115.363 89.6273 115.363 89.281H114.109ZM115.363 86.7546C115.363 86.4083 115.082 86.1275 114.736 86.1275C114.389 86.1275 114.109 86.4083 114.109 86.7546H115.363ZM114.109 84.2283C114.109 84.5746 114.389 84.8554 114.736 84.8554C115.082 84.8554 115.363 84.5746 115.363 84.2283H114.109ZM115.363 81.7019C115.363 81.3556 115.082 81.0748 114.736 81.0748C114.389 81.0748 114.109 81.3556 114.109 81.7019H115.363ZM114.109 79.1756C114.109 79.5219 114.389 79.8027 114.736 79.8027C115.082 79.8027 115.363 79.5219 115.363 79.1756H114.109ZM115.363 76.6492C115.363 76.3029 115.082 76.0221 114.736 76.0221C114.389 76.0221 114.109 76.3029 114.109 76.6492H115.363ZM114.109 74.1229C114.109 74.4692 114.389 74.75 114.736 74.75C115.082 74.75 115.363 74.4692 115.363 74.1229H114.109ZM115.363 71.5965C115.363 71.2502 115.082 70.9694 114.736 70.9694C114.389 70.9694 114.109 71.2502 114.109 71.5965H115.363ZM114.109 69.0702C114.109 69.4165 114.389 69.6973 114.736 69.6973C115.082 69.6973 115.363 69.4165 115.363 69.0702H114.109ZM115.363 66.5438C115.363 66.1975 115.082 65.9167 114.736 65.9167C114.389 65.9167 114.109 66.1975 114.109 66.5438H115.363ZM114.109 64.0175C114.109 64.3638 114.389 64.6446 114.736 64.6446C115.082 64.6446 115.363 64.3638 115.363 64.0175H114.109ZM115.363 61.4911C115.363 61.1448 115.082 60.864 114.736 60.864C114.389 60.864 114.109 61.1448 114.109 61.4911H115.363ZM114.109 58.9648C114.109 59.3111 114.389 59.5919 114.736 59.5919C115.082 59.5919 115.363 59.3111 115.363 58.9648H114.109ZM115.902 58.3287C116.249 58.3287 116.529 58.0479 116.529 57.7016C116.529 57.3553 116.249 57.0745 115.902 57.0745V58.3287ZM118.235 57.0745C117.889 57.0745 117.608 57.3553 117.608 57.7016C117.608 58.0479 117.889 58.3287 118.235 58.3287V57.0745ZM120.568 58.3287C120.914 58.3287 121.195 58.0479 121.195 57.7016C121.195 57.3553 120.914 57.0745 120.568 57.0745V58.3287ZM122.901 57.0745C122.554 57.0745 122.274 57.3553 122.274 57.7016C122.274 58.0479 122.554 58.3287 122.901 58.3287V57.0745ZM125.234 58.3287C125.58 58.3287 125.861 58.0479 125.861 57.7016C125.861 57.3553 125.58 57.0745 125.234 57.0745V58.3287ZM127.566 57.0745C127.22 57.0745 126.939 57.3553 126.939 57.7016C126.939 58.0479 127.22 58.3287 127.566 58.3287V57.0745ZM129.871 58.3583C130.217 58.3767 130.512 58.1113 130.53 57.7654C130.549 57.4196 130.284 57.1243 129.938 57.1058L129.871 58.3583ZM132.346 57.3892C132.006 57.3245 131.678 57.548 131.613 57.8883C131.549 58.2285 131.772 58.5567 132.112 58.6214L132.346 57.3892ZM134.254 59.2241C134.577 59.3495 134.94 59.1895 135.065 58.8667C135.191 58.5439 135.031 58.1805 134.708 58.0551L134.254 59.2241ZM136.907 59.2152C136.622 59.0172 136.232 59.0872 136.034 59.3714C135.836 59.6556 135.906 60.0464 136.19 60.2444L136.907 59.2152ZM137.749 61.6485C137.975 61.9107 138.371 61.9399 138.634 61.7136C138.896 61.4873 138.925 61.0913 138.699 60.8291L137.749 61.6485ZM139.985 62.7726C139.832 62.4623 139.456 62.3352 139.145 62.4889C138.835 62.6426 138.708 63.0188 138.861 63.3292L139.985 62.7726ZM139.551 65.2457C139.634 65.5821 139.973 65.7882 140.309 65.706C140.646 65.6238 140.852 65.2844 140.77 64.948L139.551 65.2457ZM141.112 67.2052C141.088 66.8596 140.789 66.5988 140.443 66.6225C140.097 66.6463 139.837 66.9457 139.86 67.2912L141.112 67.2052ZM139.86 69.3821C139.836 69.7276 140.096 70.0272 140.442 70.0514C140.787 70.0756 141.087 69.8151 141.111 69.4696L139.86 69.3821ZM140.764 71.7257C140.848 71.3895 140.642 71.0496 140.306 70.9664C139.97 70.8833 139.63 71.0885 139.547 71.4247L140.764 71.7257ZM138.853 73.3393C138.699 73.6495 138.825 74.0258 139.135 74.1798C139.446 74.3339 139.822 74.2073 139.976 73.8971L138.853 73.3393ZM138.695 75.8385C138.92 75.5752 138.889 75.1793 138.626 74.9544C138.362 74.7294 137.966 74.7605 137.741 75.0238L138.695 75.8385ZM136.19 76.4304C135.906 76.6283 135.836 77.0192 136.034 77.3034C136.232 77.5876 136.622 77.6575 136.907 77.4595L136.19 76.4304ZM134.708 78.6197C135.031 78.4942 135.191 78.1308 135.065 77.808C134.94 77.4852 134.577 77.3252 134.254 77.4506L134.708 78.6197ZM132.112 78.0534C131.772 78.118 131.549 78.4462 131.613 78.7865C131.678 79.1267 132.006 79.3502 132.346 79.2856L132.112 78.0534ZM129.938 79.5689C130.284 79.5505 130.549 79.2552 130.53 78.9093C130.512 78.5634 130.217 78.298 129.871 78.3165L129.938 79.5689ZM127.497 78.346C127.151 78.346 126.87 78.6268 126.87 78.9731C126.87 79.3195 127.151 79.6002 127.497 79.6002V78.346ZM125.027 79.6002C125.373 79.6002 125.654 79.3195 125.654 78.9731C125.654 78.6268 125.373 78.346 125.027 78.346V79.6002ZM122.556 78.346C122.209 78.346 121.929 78.6268 121.929 78.9731C121.929 79.3195 122.209 79.6002 122.556 79.6002V78.346ZM120.085 79.6002C120.431 79.6002 120.712 79.3195 120.712 78.9731C120.712 78.6268 120.431 78.346 120.085 78.346V79.6002ZM118.222 80.1479C118.222 80.4943 118.503 80.775 118.85 80.775C119.196 80.775 119.477 80.4943 119.477 80.1479H118.222ZM119.477 82.4975C119.477 82.1511 119.196 81.8704 118.85 81.8704C118.503 81.8704 118.222 82.1511 118.222 82.4975H119.477ZM118.222 84.847C118.222 85.1934 118.503 85.4742 118.85 85.4742C119.196 85.4742 119.477 85.1934 119.477 84.847H118.222ZM119.477 87.1966C119.477 86.8503 119.196 86.5695 118.85 86.5695C118.503 86.5695 118.222 86.8503 118.222 87.1966H119.477ZM118.222 89.5462C118.222 89.8925 118.503 90.1733 118.85 90.1733C119.196 90.1733 119.477 89.8925 119.477 89.5462H118.222ZM119.477 91.8957C119.477 91.5494 119.196 91.2686 118.85 91.2686C118.503 91.2686 118.222 91.5494 118.222 91.8957H119.477ZM117.821 92.4434C117.475 92.4434 117.194 92.7242 117.194 93.0705C117.194 93.4169 117.475 93.6976 117.821 93.6976V92.4434ZM115.764 93.6976C116.111 93.6976 116.391 93.4169 116.391 93.0705C116.391 92.7242 116.111 92.4434 115.764 92.4434V93.6976ZM119.477 74.3116C119.477 73.9653 119.196 73.6845 118.85 73.6845C118.503 73.6845 118.222 73.9653 118.222 74.3116H119.477ZM118.222 71.9119C118.222 72.2582 118.503 72.539 118.85 72.539C119.196 72.539 119.477 72.2582 119.477 71.9119H118.222ZM119.477 69.5121C119.477 69.1658 119.196 68.885 118.85 68.885C118.503 68.885 118.222 69.1658 118.222 69.5121H119.477ZM118.222 67.1124C118.222 67.4588 118.503 67.7395 118.85 67.7395C119.196 67.7395 119.477 67.4588 119.477 67.1124H118.222ZM119.477 64.7127C119.477 64.3663 119.196 64.0856 118.85 64.0856C118.503 64.0856 118.222 64.3663 118.222 64.7127H119.477ZM118.222 62.3129C118.222 62.6593 118.503 62.9401 118.85 62.9401C119.196 62.9401 119.477 62.6593 119.477 62.3129H118.222ZM120.022 61.7402C120.369 61.7402 120.649 61.4594 120.649 61.1131C120.649 60.7667 120.369 60.486 120.022 60.486V61.7402ZM122.368 60.486C122.021 60.486 121.741 60.7667 121.741 61.1131C121.741 61.4594 122.021 61.7402 122.368 61.7402V60.486ZM124.713 61.7402C125.059 61.7402 125.34 61.4594 125.34 61.1131C125.34 60.7667 125.059 60.486 124.713 60.486V61.7402ZM127.058 60.486C126.712 60.486 126.431 60.7667 126.431 61.1131C126.431 61.4594 126.712 61.7402 127.058 61.7402V60.486ZM129.238 61.7702C129.584 61.7915 129.882 61.5286 129.903 61.1829C129.924 60.8373 129.661 60.5397 129.316 60.5184L129.238 61.7702ZM131.49 60.8265C131.153 60.747 130.815 60.9559 130.736 61.293C130.656 61.63 130.865 61.9678 131.202 62.0473L131.49 60.8265ZM133.004 62.7115C133.309 62.8759 133.69 62.7622 133.854 62.4574C134.019 62.1526 133.905 61.7721 133.6 61.6077L133.004 62.7115ZM135.406 63.0432C135.18 62.7809 134.784 62.7517 134.522 62.9779C134.259 63.204 134.23 63.6 134.456 63.8623L135.406 63.0432ZM135.384 65.4682C135.503 65.7935 135.863 65.9608 136.188 65.8419C136.514 65.7229 136.681 65.3628 136.562 65.0375L135.384 65.4682ZM137.037 67.2335C137.005 66.8886 136.699 66.635 136.354 66.6669C136.01 66.6989 135.756 67.0043 135.788 67.3492L137.037 67.2335ZM135.729 69.8045C135.678 70.147 135.914 70.4662 136.257 70.5175C136.599 70.5687 136.918 70.3325 136.97 69.99L135.729 69.8045ZM135.754 73.156C135.956 72.8743 135.891 72.4826 135.609 72.2811C135.328 72.0795 134.936 72.1445 134.734 72.4261L135.754 73.156ZM132.569 74.132C132.252 74.2713 132.107 74.6413 132.247 74.9584C132.386 75.2755 132.756 75.4196 133.073 75.2803L132.569 74.132ZM129.854 76.064C130.199 76.0306 130.452 75.7241 130.418 75.3793C130.385 75.0346 130.078 74.7822 129.733 74.8156L129.854 76.064ZM127.058 74.8844C126.712 74.8844 126.431 75.1651 126.431 75.5115C126.431 75.8578 126.712 76.1386 127.058 76.1386V74.8844ZM124.713 76.1386C125.059 76.1386 125.34 75.8578 125.34 75.5115C125.34 75.1651 125.059 74.8844 124.713 74.8844V76.1386ZM122.368 74.8844C122.021 74.8844 121.741 75.1651 121.741 75.5115C121.741 75.8578 122.021 76.1386 122.368 76.1386V74.8844ZM120.022 76.1386C120.369 76.1386 120.649 75.8578 120.649 75.5115C120.649 75.1651 120.369 74.8844 120.022 74.8844V76.1386ZM115.363 93.0705V91.8074H114.109V93.0705H115.363ZM115.363 89.281V86.7546H114.109V89.281H115.363ZM115.363 84.2283V81.7019H114.109V84.2283H115.363ZM115.363 79.1756V76.6492H114.109V79.1756H115.363ZM115.363 74.1229V71.5965H114.109V74.1229H115.363ZM115.363 69.0702V66.5438H114.109V69.0702H115.363ZM115.363 64.0175V61.4911H114.109V64.0175H115.363ZM115.363 58.9648V57.7016H114.109V58.9648H115.363ZM114.736 58.3287H115.902V57.0745H114.736V58.3287ZM118.235 58.3287H120.568V57.0745H118.235V58.3287ZM122.901 58.3287H125.234V57.0745H122.901V58.3287ZM127.566 58.3287H128.733V57.0745H127.566V58.3287ZM128.733 58.3287C129.123 58.3287 129.502 58.3386 129.871 58.3583L129.938 57.1058C129.545 57.0849 129.144 57.0745 128.733 57.0745V58.3287ZM132.112 58.6214C132.886 58.7683 133.599 58.9698 134.254 59.2241L134.708 58.0551C133.975 57.7703 133.188 57.5489 132.346 57.3892L132.112 58.6214ZM136.19 60.2444C136.49 60.4536 136.773 60.6799 137.038 60.9232L137.886 59.9986C137.579 59.7171 137.252 59.4559 136.907 59.2152L136.19 60.2444ZM137.042 60.9266C137.295 61.1547 137.531 61.3953 137.749 61.6485L138.699 60.8291C138.446 60.5357 138.173 60.2577 137.882 59.9951L137.042 60.9266ZM138.861 63.3292C139.152 63.9157 139.382 64.554 139.551 65.2457L140.77 64.948C140.58 64.1732 140.32 63.4475 139.985 62.7726L138.861 63.3292ZM139.86 67.2912C139.884 67.6299 139.895 67.9786 139.895 68.3374H141.15C141.15 67.9513 141.137 67.5739 141.112 67.2052L139.86 67.2912ZM139.895 68.3374C139.895 68.6954 139.883 69.0436 139.86 69.3821L141.111 69.4696C141.137 69.1006 141.15 68.7232 141.15 68.3374H139.895ZM139.547 71.4247C139.377 72.1134 139.145 72.751 138.853 73.3393L139.976 73.8971C140.311 73.2217 140.574 72.4973 140.764 71.7257L139.547 71.4247ZM137.741 75.0238C137.524 75.2783 137.29 75.521 137.038 75.7519L137.886 76.6758C138.174 76.4112 138.444 76.1321 138.695 75.8385L137.741 75.0238ZM137.038 75.7516C136.773 75.9949 136.49 76.2211 136.19 76.4304L136.907 77.4595C137.252 77.2188 137.579 76.9577 137.886 76.6761L137.038 75.7516ZM134.254 77.4506C133.599 77.7049 132.886 77.9064 132.112 78.0534L132.346 79.2856C133.188 79.1258 133.975 78.9044 134.708 78.6197L134.254 77.4506ZM129.871 78.3165C129.502 78.3361 129.123 78.346 128.733 78.346V79.6002C129.144 79.6002 129.545 79.5898 129.938 79.5689L129.871 78.3165ZM128.733 78.346H127.497V79.6002H128.733V78.346ZM125.027 78.346H122.556V79.6002H125.027V78.346ZM120.085 78.346H118.85V79.6002H120.085V78.346ZM118.222 78.9731V80.1479H119.477V78.9731H118.222ZM118.222 82.4975V84.847H119.477V82.4975H118.222ZM118.222 87.1966V89.5462H119.477V87.1966H118.222ZM118.222 91.8957V93.0705H119.477V91.8957H118.222ZM118.85 92.4434H117.821V93.6976H118.85V92.4434ZM115.764 92.4434H114.736V93.6976H115.764V92.4434ZM119.477 75.5115V74.3116H118.222V75.5115H119.477ZM119.477 71.9119V69.5121H118.222V71.9119H119.477ZM119.477 67.1124V64.7127H118.222V67.1124H119.477ZM119.477 62.3129V61.1131H118.222V62.3129H119.477ZM118.85 61.7402H120.022V60.486H118.85V61.7402ZM122.368 61.7402H124.713V60.486H122.368V61.7402ZM127.058 61.7402H128.231V60.486H127.058V61.7402ZM128.231 61.7402C128.58 61.7402 128.915 61.7502 129.238 61.7702L129.316 60.5184C128.965 60.4967 128.604 60.486 128.231 60.486V61.7402ZM131.202 62.0473C131.887 62.2087 132.486 62.4316 133.004 62.7115L133.6 61.6077C132.971 61.2684 132.266 61.0095 131.49 60.8265L131.202 62.0473ZM134.456 63.8623C134.847 64.316 135.158 64.8491 135.384 65.4682L136.562 65.0375C136.287 64.2866 135.903 63.6196 135.406 63.0432L134.456 63.8623ZM135.788 67.3492C135.817 67.6636 135.832 67.9929 135.832 68.3374H137.086C137.086 67.9572 137.07 67.5892 137.037 67.2335L135.788 67.3492ZM135.832 68.3374C135.832 68.8617 135.797 69.3504 135.729 69.8045L136.97 69.99C137.048 69.4678 137.086 68.9166 137.086 68.3374H135.832ZM134.734 72.4261C134.215 73.1523 133.5 73.7228 132.569 74.132L133.073 75.2803C134.19 74.7897 135.091 74.0834 135.754 73.156L134.734 72.4261ZM129.733 74.8156C129.262 74.8613 128.761 74.8844 128.231 74.8844V76.1386C128.798 76.1386 129.339 76.1139 129.854 76.064L129.733 74.8156ZM128.231 74.8844H127.058V76.1386H128.231V74.8844ZM124.713 74.8844H122.368V76.1386H124.713V74.8844ZM120.022 74.8844H118.85V76.1386H120.022V74.8844ZM151.5 93.0705H150.873C150.873 93.4169 151.154 93.6976 151.5 93.6976V93.0705ZM151.5 57.7016V57.0745C151.154 57.0745 150.873 57.3553 150.873 57.7016H151.5ZM155.614 57.7016H156.241C156.241 57.3553 155.96 57.0745 155.614 57.0745V57.7016ZM155.614 89.4584H154.987C154.987 89.8047 155.267 90.0855 155.614 90.0855V89.4584ZM173.624 89.4584H174.252C174.252 89.112 173.971 88.8313 173.624 88.8313V89.4584ZM173.624 93.0705V93.6976C173.971 93.6976 174.252 93.4169 174.252 93.0705H173.624ZM152.127 91.8074C152.127 91.461 151.846 91.1802 151.5 91.1802C151.154 91.1802 150.873 91.461 150.873 91.8074H152.127ZM150.873 89.281C150.873 89.6273 151.154 89.9081 151.5 89.9081C151.846 89.9081 152.127 89.6273 152.127 89.281H150.873ZM152.127 86.7546C152.127 86.4083 151.846 86.1275 151.5 86.1275C151.154 86.1275 150.873 86.4083 150.873 86.7546H152.127ZM150.873 84.2283C150.873 84.5746 151.154 84.8554 151.5 84.8554C151.846 84.8554 152.127 84.5746 152.127 84.2283H150.873ZM152.127 81.7019C152.127 81.3556 151.846 81.0748 151.5 81.0748C151.154 81.0748 150.873 81.3556 150.873 81.7019H152.127ZM150.873 79.1756C150.873 79.5219 151.154 79.8027 151.5 79.8027C151.846 79.8027 152.127 79.5219 152.127 79.1756H150.873ZM152.127 76.6492C152.127 76.3029 151.846 76.0221 151.5 76.0221C151.154 76.0221 150.873 76.3029 150.873 76.6492H152.127ZM150.873 74.1229C150.873 74.4692 151.154 74.75 151.5 74.75C151.846 74.75 152.127 74.4692 152.127 74.1229H150.873ZM152.127 71.5965C152.127 71.2502 151.846 70.9694 151.5 70.9694C151.154 70.9694 150.873 71.2502 150.873 71.5965H152.127ZM150.873 69.0702C150.873 69.4165 151.154 69.6973 151.5 69.6973C151.846 69.6973 152.127 69.4165 152.127 69.0702H150.873ZM152.127 66.5438C152.127 66.1975 151.846 65.9167 151.5 65.9167C151.154 65.9167 150.873 66.1975 150.873 66.5438H152.127ZM150.873 64.0175C150.873 64.3638 151.154 64.6446 151.5 64.6446C151.846 64.6446 152.127 64.3638 152.127 64.0175H150.873ZM152.127 61.4911C152.127 61.1448 151.846 60.864 151.5 60.864C151.154 60.864 150.873 61.1448 150.873 61.4911H152.127ZM150.873 58.9648C150.873 59.3111 151.154 59.5919 151.5 59.5919C151.846 59.5919 152.127 59.3111 152.127 58.9648H150.873ZM152.528 58.3287C152.875 58.3287 153.156 58.0479 153.156 57.7016C153.156 57.3553 152.875 57.0745 152.528 57.0745V58.3287ZM154.585 57.0745C154.239 57.0745 153.958 57.3553 153.958 57.7016C153.958 58.0479 154.239 58.3287 154.585 58.3287V57.0745ZM154.987 59.0248C154.987 59.3711 155.267 59.6519 155.614 59.6519C155.96 59.6519 156.241 59.3711 156.241 59.0248H154.987ZM156.241 61.6712C156.241 61.3249 155.96 61.0441 155.614 61.0441C155.267 61.0441 154.987 61.3249 154.987 61.6712H156.241ZM154.987 64.3176C154.987 64.6639 155.267 64.9447 155.614 64.9447C155.96 64.9447 156.241 64.6639 156.241 64.3176H154.987ZM156.241 66.964C156.241 66.6177 155.96 66.3369 155.614 66.3369C155.267 66.3369 154.987 66.6177 154.987 66.964H156.241ZM154.987 69.6104C154.987 69.9567 155.267 70.2375 155.614 70.2375C155.96 70.2375 156.241 69.9567 156.241 69.6104H154.987ZM156.241 72.2568C156.241 71.9105 155.96 71.6297 155.614 71.6297C155.267 71.6297 154.987 71.9105 154.987 72.2568H156.241ZM154.987 74.9032C154.987 75.2495 155.267 75.5303 155.614 75.5303C155.96 75.5303 156.241 75.2495 156.241 74.9032H154.987ZM156.241 77.5496C156.241 77.2032 155.96 76.9225 155.614 76.9225C155.267 76.9225 154.987 77.2032 154.987 77.5496H156.241ZM154.987 80.196C154.987 80.5423 155.267 80.8231 155.614 80.8231C155.96 80.8231 156.241 80.5423 156.241 80.196H154.987ZM156.241 82.8424C156.241 82.496 155.96 82.2153 155.614 82.2153C155.267 82.2153 154.987 82.496 154.987 82.8424H156.241ZM154.987 85.4888C154.987 85.8351 155.267 86.1159 155.614 86.1159C155.96 86.1159 156.241 85.8351 156.241 85.4888H154.987ZM156.241 88.1352C156.241 87.7888 155.96 87.5081 155.614 87.5081C155.267 87.5081 154.987 87.7888 154.987 88.1352H156.241ZM156.739 90.0855C157.086 90.0855 157.367 89.8047 157.367 89.4584C157.367 89.112 157.086 88.8313 156.739 88.8313V90.0855ZM158.991 88.8313C158.644 88.8313 158.364 89.112 158.364 89.4584C158.364 89.8047 158.644 90.0855 158.991 90.0855V88.8313ZM161.242 90.0855C161.588 90.0855 161.869 89.8047 161.869 89.4584C161.869 89.112 161.588 88.8313 161.242 88.8313V90.0855ZM163.493 88.8313C163.147 88.8313 162.866 89.112 162.866 89.4584C162.866 89.8047 163.147 90.0855 163.493 90.0855V88.8313ZM165.745 90.0855C166.091 90.0855 166.372 89.8047 166.372 89.4584C166.372 89.112 166.091 88.8313 165.745 88.8313V90.0855ZM167.996 88.8313C167.65 88.8313 167.369 89.112 167.369 89.4584C167.369 89.8047 167.65 90.0855 167.996 90.0855V88.8313ZM170.247 90.0855C170.594 90.0855 170.875 89.8047 170.875 89.4584C170.875 89.112 170.594 88.8313 170.247 88.8313V90.0855ZM172.499 88.8313C172.152 88.8313 171.872 89.112 171.872 89.4584C171.872 89.8047 172.152 90.0855 172.499 90.0855V88.8313ZM172.997 90.3614C172.997 90.7078 173.278 90.9885 173.624 90.9885C173.971 90.9885 174.252 90.7078 174.252 90.3614H172.997ZM174.252 92.1675C174.252 91.8211 173.971 91.5404 173.624 91.5404C173.278 91.5404 172.997 91.8211 172.997 92.1675H174.252ZM172.242 92.4434C171.895 92.4434 171.615 92.7242 171.615 93.0705C171.615 93.4169 171.895 93.6976 172.242 93.6976V92.4434ZM169.476 93.6976C169.822 93.6976 170.103 93.4169 170.103 93.0705C170.103 92.7242 169.822 92.4434 169.476 92.4434V93.6976ZM166.711 92.4434C166.364 92.4434 166.083 92.7242 166.083 93.0705C166.083 93.4169 166.364 93.6976 166.711 93.6976V92.4434ZM163.945 93.6976C164.291 93.6976 164.572 93.4169 164.572 93.0705C164.572 92.7242 164.291 92.4434 163.945 92.4434V93.6976ZM161.179 92.4434C160.833 92.4434 160.552 92.7242 160.552 93.0705C160.552 93.4169 160.833 93.6976 161.179 93.6976V92.4434ZM158.414 93.6976C158.76 93.6976 159.041 93.4169 159.041 93.0705C159.041 92.7242 158.76 92.4434 158.414 92.4434V93.6976ZM155.648 92.4434C155.302 92.4434 155.021 92.7242 155.021 93.0705C155.021 93.4169 155.302 93.6976 155.648 93.6976V92.4434ZM152.883 93.6976C153.229 93.6976 153.51 93.4169 153.51 93.0705C153.51 92.7242 153.229 92.4434 152.883 92.4434V93.6976ZM152.127 93.0705V91.8074H150.873V93.0705H152.127ZM152.127 89.281V86.7546H150.873V89.281H152.127ZM152.127 84.2283V81.7019H150.873V84.2283H152.127ZM152.127 79.1756V76.6492H150.873V79.1756H152.127ZM152.127 74.1229V71.5965H150.873V74.1229H152.127ZM152.127 69.0702V66.5438H150.873V69.0702H152.127ZM152.127 64.0175V61.4911H150.873V64.0175H152.127ZM152.127 58.9648V57.7016H150.873V58.9648H152.127ZM151.5 58.3287H152.528V57.0745H151.5V58.3287ZM154.585 58.3287H155.614V57.0745H154.585V58.3287ZM154.987 57.7016V59.0248H156.241V57.7016H154.987ZM154.987 61.6712V64.3176H156.241V61.6712H154.987ZM154.987 66.964V69.6104H156.241V66.964H154.987ZM154.987 72.2568V74.9032H156.241V72.2568H154.987ZM154.987 77.5496V80.196H156.241V77.5496H154.987ZM154.987 82.8424V85.4888H156.241V82.8424H154.987ZM154.987 88.1352V89.4584H156.241V88.1352H154.987ZM155.614 90.0855H156.739V88.8313H155.614V90.0855ZM158.991 90.0855H161.242V88.8313H158.991V90.0855ZM163.493 90.0855H165.745V88.8313H163.493V90.0855ZM167.996 90.0855H170.247V88.8313H167.996V90.0855ZM172.499 90.0855H173.624V88.8313H172.499V90.0855ZM172.997 89.4584V90.3614H174.252V89.4584H172.997ZM172.997 92.1675V93.0705H174.252V92.1675H172.997ZM173.624 92.4434H172.242V93.6976H173.624V92.4434ZM169.476 92.4434H166.711V93.6976H169.476V92.4434ZM163.945 92.4434H161.179V93.6976H163.945V92.4434ZM158.414 92.4434H155.648V93.6976H158.414V92.4434ZM152.883 92.4434H151.5V93.6976H152.883V92.4434ZM188.215 91.3146L187.883 91.8465L187.892 91.8517L188.215 91.3146ZM182.596 84.9934L182.031 85.2654L182.034 85.271L182.596 84.9934ZM182.596 65.7286L182.031 65.4565L182.596 65.7286ZM188.165 59.4575L187.841 58.9204L187.838 58.9224L188.165 59.4575ZM205.423 59.4575L205.096 59.9926L205.099 59.9946L205.423 59.4575ZM211.042 65.7286L210.477 66.0007L210.481 66.009L211.042 65.7286ZM211.042 84.9934L211.604 85.271L211.606 85.2683L211.042 84.9934ZM205.373 91.3146L205.7 91.8497L205.702 91.8485L205.373 91.3146ZM205.574 86.0469L206.06 86.4433L206.06 86.4433L205.574 86.0469ZM205.574 64.7252L205.088 65.1216L205.09 65.1248L205.574 64.7252ZM188.115 64.7252L188.598 65.1248L188.601 65.1216L188.115 64.7252ZM188.115 86.0469L187.626 86.4402L187.629 86.4433L188.115 86.0469ZM195.707 92.8663C195.361 92.8478 195.065 93.1131 195.047 93.459C195.028 93.8048 195.294 94.1002 195.64 94.1187L195.707 92.8663ZM193.337 93.8587C193.678 93.9188 194.004 93.6911 194.064 93.35C194.124 93.0089 193.896 92.6837 193.555 92.6236L193.337 93.8587ZM191.464 92.1067C191.134 92 190.781 92.1807 190.674 92.5102C190.568 92.8397 190.748 93.1933 191.078 93.3L191.464 92.1067ZM188.916 92.4161C189.226 92.5713 189.603 92.4461 189.758 92.1365C189.913 91.8269 189.788 91.4501 189.478 91.2949L188.916 92.4161ZM187.697 90.2084C187.417 90.0043 187.025 90.0658 186.821 90.3456C186.617 90.6255 186.678 91.0177 186.958 91.2218L187.697 90.2084ZM185.255 89.7786C185.503 90.0213 185.9 90.0177 186.142 89.7705C186.385 89.5234 186.381 89.1264 186.134 88.8837L185.255 89.7786ZM184.778 87.345C184.568 87.0695 184.175 87.0165 183.899 87.2264C183.624 87.4364 183.571 87.8299 183.781 88.1053L184.778 87.345ZM182.555 86.2503C182.726 86.551 183.11 86.6555 183.41 86.4837C183.711 86.3119 183.815 85.9288 183.644 85.6281L182.555 86.2503ZM182.683 83.6278C182.555 83.3058 182.191 83.1481 181.869 83.2756C181.547 83.4031 181.389 83.7675 181.517 84.0895L182.683 83.6278ZM180.736 81.6535C180.82 81.9894 181.161 82.1931 181.497 82.1086C181.833 82.0242 182.037 81.6834 181.952 81.3475L180.736 81.6535ZM181.5 78.9836C181.453 78.6404 181.138 78.3999 180.794 78.4464C180.451 78.4929 180.211 78.8088 180.257 79.152L181.5 78.9836ZM180.038 76.6257C180.052 76.9717 180.344 77.2408 180.69 77.2266C181.036 77.2124 181.306 76.9204 181.291 76.5744L180.038 76.6257ZM181.291 74.1476C181.306 73.8015 181.036 73.5095 180.69 73.4954C180.344 73.4812 180.052 73.7502 180.038 74.0963L181.291 74.1476ZM180.257 71.5699C180.211 71.9131 180.451 72.2291 180.794 72.2756C181.138 72.3221 181.453 72.0816 181.5 71.7384L180.257 71.5699ZM181.952 69.3745C182.037 69.0386 181.833 68.6978 181.497 68.6133C181.161 68.5288 180.82 68.7326 180.736 69.0685L181.952 69.3745ZM181.517 66.6324C181.389 66.9545 181.547 67.3189 181.869 67.4464C182.191 67.5739 182.555 67.4162 182.683 67.0942L181.517 66.6324ZM183.634 65.0919C183.803 64.7898 183.696 64.4076 183.394 64.2382C183.091 64.0689 182.709 64.1765 182.54 64.4786L183.634 65.0919ZM183.748 62.6272C183.539 62.9034 183.593 63.2967 183.87 63.5057C184.146 63.7147 184.539 63.6602 184.748 63.3841L183.748 62.6272ZM186.09 61.8588C186.338 61.6167 186.342 61.2196 186.1 60.972C185.858 60.7244 185.461 60.72 185.213 60.9621L186.09 61.8588ZM186.913 59.5353C186.632 59.7372 186.568 60.129 186.769 60.4104C186.971 60.6918 187.363 60.7562 187.645 60.5543L186.913 59.5353ZM189.433 59.4752C189.743 59.3203 189.868 58.9436 189.714 58.6338C189.559 58.324 189.182 58.1984 188.872 58.3533L189.433 59.4752ZM191.047 57.4683C190.717 57.5743 190.536 57.9275 190.642 58.2572C190.748 58.587 191.101 58.7683 191.431 58.6624L191.047 57.4683ZM193.535 58.1469C193.876 58.0874 194.105 57.7626 194.045 57.4214C193.986 57.0802 193.661 56.8518 193.32 56.9113L193.535 58.1469ZM195.634 56.6532C195.288 56.6714 195.022 56.9666 195.041 57.3125C195.059 57.6583 195.354 57.9239 195.7 57.9056L195.634 56.6532ZM197.889 57.9051C198.235 57.9231 198.53 57.6573 198.548 57.3114C198.566 56.9655 198.3 56.6706 197.954 56.6526L197.889 57.9051ZM200.269 56.9074C199.927 56.8485 199.603 57.0775 199.544 57.4188C199.485 57.7601 199.714 58.0845 200.056 58.1433L200.269 56.9074ZM202.16 58.6557C202.49 58.7614 202.843 58.5798 202.949 58.25C203.055 57.9201 202.873 57.5671 202.543 57.4613L202.16 58.6557ZM204.72 58.3495C204.411 58.1937 204.034 58.3181 203.878 58.6274C203.722 58.9367 203.846 59.3138 204.156 59.4696L204.72 58.3495ZM205.954 60.5536C206.237 60.7537 206.628 60.6867 206.829 60.404C207.029 60.1214 206.962 59.73 206.679 59.5299L205.954 60.5536ZM208.396 60.952C208.147 60.7113 207.75 60.7181 207.509 60.9671C207.268 61.2162 207.275 61.6132 207.524 61.8539L208.396 60.952ZM208.879 63.3781C209.089 63.6534 209.483 63.7063 209.758 63.4961C210.033 63.286 210.086 62.8925 209.876 62.6171L208.879 63.3781ZM211.095 64.4741C210.925 64.1722 210.543 64.0652 210.241 64.235C209.939 64.4048 209.832 64.7872 210.002 65.089L211.095 64.4741ZM210.972 67.0906C211.103 67.411 211.47 67.5643 211.79 67.4328C212.111 67.3014 212.264 66.9351 212.132 66.6147L210.972 67.0906ZM212.935 69.0379C212.848 68.7026 212.506 68.5013 212.171 68.5883C211.835 68.6752 211.634 69.0175 211.721 69.3527L212.935 69.0379ZM212.184 71.7036C212.231 72.0466 212.548 72.286 212.891 72.2382C213.234 72.1905 213.474 71.8737 213.426 71.5307L212.184 71.7036ZM213.65 74.0497C213.635 73.7037 213.343 73.4349 212.997 73.4494C212.651 73.4639 212.382 73.7562 212.397 74.1022L213.65 74.0497ZM212.396 76.5311C212.382 76.8771 212.65 77.1695 212.996 77.1841C213.342 77.1987 213.635 76.93 213.649 76.584L212.396 76.5311ZM213.423 79.1267C213.47 78.7836 213.231 78.4668 212.888 78.4191C212.545 78.3713 212.228 78.6107 212.18 78.9537L213.423 79.1267ZM211.715 81.3296C211.628 81.665 211.83 82.0069 212.166 82.0932C212.501 82.1795 212.843 81.9775 212.929 81.6421L211.715 81.3296ZM212.13 84.0885C212.259 83.7672 212.103 83.4019 211.782 83.2726C211.461 83.1432 211.096 83.2988 210.966 83.6201L212.13 84.0885ZM209.992 85.631C209.82 85.9314 209.924 86.3146 210.225 86.4869C210.525 86.6592 210.908 86.5552 211.08 86.2548L209.992 85.631ZM209.843 88.1153C210.054 87.8407 210.003 87.447 209.728 87.2359C209.454 87.0248 209.06 87.0763 208.849 87.3509L209.843 88.1153ZM207.48 88.8886C207.231 89.1298 207.225 89.5269 207.467 89.7754C207.708 90.024 208.105 90.0299 208.353 89.7887L207.48 88.8886ZM206.634 91.2272C206.915 91.025 206.979 90.6331 206.777 90.352C206.575 90.0708 206.183 90.0068 205.902 90.2091L206.634 91.2272ZM204.111 91.3004C203.801 91.4566 203.677 91.8338 203.834 92.1429C203.99 92.452 204.367 92.576 204.676 92.4199L204.111 91.3004ZM202.513 93.307C202.842 93.2005 203.023 92.8471 202.917 92.5175C202.81 92.1879 202.457 92.007 202.127 92.1134L202.513 93.307ZM200.036 92.6272C199.695 92.6866 199.466 93.0114 199.526 93.3526C199.585 93.6938 199.91 93.9222 200.251 93.8627L200.036 92.6272ZM197.948 94.1193C198.294 94.1011 198.56 93.8059 198.542 93.4601C198.523 93.1142 198.228 92.8486 197.882 92.8668L197.948 94.1193ZM195.618 89.186C195.273 89.1579 194.97 89.415 194.942 89.7602C194.914 90.1054 195.171 90.408 195.516 90.4361L195.618 89.186ZM192.98 89.9829C193.313 90.0787 193.661 89.8866 193.757 89.5538C193.852 89.2209 193.66 88.8735 193.327 88.7777L192.98 89.9829ZM191.209 87.8865C190.908 87.7139 190.525 87.8175 190.352 88.1178C190.18 88.4181 190.283 88.8014 190.584 88.974L191.209 87.8865ZM188.506 87.4019C188.754 87.6434 189.151 87.638 189.393 87.3898C189.634 87.1415 189.629 86.7445 189.38 86.503L188.506 87.4019ZM187.827 84.5593C187.644 84.2653 187.257 84.1755 186.963 84.3587C186.669 84.5419 186.579 84.9287 186.763 85.2226L187.827 84.5593ZM185.481 82.5489C185.598 82.875 185.957 83.0447 186.283 82.928C186.609 82.8113 186.778 82.4524 186.662 82.1263L185.481 82.5489ZM185.97 79.4866C185.909 79.1457 185.584 78.9186 185.243 78.9795C184.902 79.0403 184.675 79.3661 184.736 79.707L185.97 79.4866ZM184.413 76.8113C184.431 77.1572 184.726 77.4233 185.072 77.4057C185.417 77.3882 185.684 77.0935 185.666 76.7476L184.413 76.8113ZM185.665 73.979C185.683 73.6331 185.416 73.3387 185.07 73.3214C184.724 73.304 184.43 73.5704 184.413 73.9163L185.665 73.979ZM184.73 71.0309C184.669 71.372 184.897 71.6973 185.238 71.7576C185.579 71.8179 185.905 71.5903 185.965 71.2493L184.73 71.0309ZM186.65 68.62C186.767 68.294 186.598 67.935 186.271 67.8182C185.945 67.7015 185.586 67.8712 185.47 68.1973L186.65 68.62ZM186.757 65.5333C186.571 65.826 186.658 66.2134 186.951 66.3986C187.244 66.5839 187.631 66.4968 187.816 66.2042L186.757 65.5333ZM189.38 64.2692C189.629 64.0276 189.634 63.6306 189.393 63.3824C189.151 63.1341 188.754 63.1287 188.506 63.3702L189.38 64.2692ZM190.584 61.7982C190.283 61.9707 190.18 62.354 190.352 62.6543C190.525 62.9546 190.908 63.0582 191.209 62.8857L190.584 61.7982ZM193.327 61.9945C193.66 61.8987 193.852 61.5512 193.757 61.2184C193.661 60.8855 193.313 60.6934 192.98 60.7892L193.327 61.9945ZM195.516 60.336C195.171 60.3641 194.914 60.6668 194.942 61.012C194.97 61.3572 195.273 61.6142 195.618 61.5861L195.516 60.336ZM197.983 61.5855C198.329 61.6129 198.631 61.3552 198.658 61.01C198.686 60.6647 198.428 60.3626 198.083 60.3352L197.983 61.5855ZM200.641 60.7821C200.308 60.6882 199.962 60.8823 199.868 61.2156C199.774 61.549 199.968 61.8954 200.301 61.9893L200.641 60.7821ZM202.448 62.8761C202.749 63.0467 203.132 62.9406 203.303 62.6392C203.473 62.3378 203.367 61.9551 203.066 61.7846L202.448 62.8761ZM205.172 63.3615C204.923 63.1207 204.526 63.1273 204.285 63.3762C204.045 63.6252 204.051 64.0222 204.3 64.263L205.172 63.3615ZM205.872 66.2042C206.057 66.4968 206.445 66.5839 206.737 66.3986C207.03 66.2134 207.117 65.826 206.932 65.5333L205.872 66.2042ZM208.219 68.1973C208.102 67.8712 207.743 67.7015 207.417 67.8182C207.091 67.935 206.921 68.294 207.038 68.62L208.219 68.1973ZM207.724 71.2493C207.784 71.5903 208.109 71.8179 208.45 71.7576C208.791 71.6973 209.019 71.372 208.959 71.0309L207.724 71.2493ZM209.276 73.9163C209.259 73.5704 208.964 73.304 208.618 73.3214C208.272 73.3387 208.006 73.6331 208.023 73.979L209.276 73.9163ZM208.023 76.7485C208.006 77.0944 208.272 77.3889 208.618 77.4062C208.964 77.4236 209.258 77.1573 209.276 76.8114L208.023 76.7485ZM208.957 79.7079C209.017 79.3668 208.79 79.0414 208.448 78.9811C208.107 78.9208 207.782 79.1483 207.722 79.4894L208.957 79.7079ZM207.034 82.1305C206.918 82.4567 207.088 82.8155 207.414 82.9319C207.74 83.0483 208.099 82.8782 208.215 82.552L207.034 82.1305ZM206.931 85.2276C207.115 84.9342 207.026 84.5472 206.732 84.3631C206.439 84.1791 206.052 84.2678 205.868 84.5612L206.931 85.2276ZM204.3 86.5092C204.051 86.75 204.045 87.147 204.285 87.3959C204.526 87.6449 204.923 87.6515 205.172 87.4107L204.3 86.5092ZM203.066 88.9876C203.367 88.817 203.473 88.4344 203.303 88.1329C203.132 87.8315 202.749 87.7254 202.448 87.896L203.066 88.9876ZM200.301 88.7828C199.968 88.8767 199.774 89.2231 199.868 89.5565C199.962 89.8899 200.308 90.084 200.641 89.99L200.301 88.7828ZM198.083 90.437C198.428 90.4095 198.686 90.1074 198.658 89.7622C198.631 89.4169 198.329 89.1593 197.983 89.1867L198.083 90.437ZM196.794 92.8949C196.426 92.8949 196.063 92.8854 195.707 92.8663L195.64 94.1187C196.019 94.139 196.404 94.1492 196.794 94.1492V92.8949ZM193.555 92.6236C192.831 92.496 192.134 92.3235 191.464 92.1067L191.078 93.3C191.805 93.5353 192.558 93.7215 193.337 93.8587L193.555 92.6236ZM189.478 91.2949C189.158 91.1345 188.845 90.9621 188.539 90.7775L187.892 91.8517C188.226 92.0531 188.567 92.2412 188.916 92.4161L189.478 91.2949ZM188.548 90.7828C188.256 90.6004 187.972 90.4089 187.697 90.2084L186.958 91.2218C187.258 91.4401 187.566 91.6483 187.883 91.8464L188.548 90.7828ZM186.134 88.8837C185.65 88.4082 185.198 87.8954 184.778 87.345L183.781 88.1053C184.236 88.7026 184.728 89.2605 185.255 89.7786L186.134 88.8837ZM183.644 85.6281C183.475 85.3326 183.313 85.0285 183.159 84.7157L182.034 85.271C182.199 85.606 182.373 85.9324 182.555 86.2503L183.644 85.6281ZM183.161 84.7213C182.99 84.3661 182.831 84.0016 182.683 83.6278L181.517 84.0895C181.676 84.4907 181.847 84.8827 182.031 85.2654L183.161 84.7213ZM181.952 81.3475C181.762 80.592 181.611 79.8041 181.5 78.9836L180.257 79.152C180.374 80.0162 180.534 80.8502 180.736 81.6535L181.952 81.3475ZM181.291 76.5744C181.275 76.1766 181.267 75.7721 181.267 75.361H180.013C180.013 75.7887 180.021 76.2103 180.038 76.6257L181.291 76.5744ZM181.267 75.361C181.267 74.9499 181.275 74.5454 181.291 74.1476L180.038 74.0963C180.021 74.5117 180.013 74.9333 180.013 75.361H181.267ZM181.5 71.7384C181.611 70.9178 181.762 70.1299 181.952 69.3745L180.736 69.0685C180.534 69.8718 180.374 70.7057 180.257 71.5699L181.5 71.7384ZM182.683 67.0942C182.831 66.7203 182.99 66.3558 183.161 66.0006L182.031 65.4565C181.847 65.8392 181.676 66.2312 181.517 66.6324L182.683 67.0942ZM183.161 66.0006C183.312 65.6888 183.469 65.3859 183.634 65.0919L182.54 64.4786C182.362 64.7958 182.192 65.1218 182.031 65.4565L183.161 66.0006ZM184.748 63.3841C185.162 62.837 185.609 62.3287 186.09 61.8588L185.213 60.9621C184.687 61.4763 184.199 62.0315 183.748 62.6272L184.748 63.3841ZM187.645 60.5543C187.918 60.3578 188.201 60.1705 188.492 59.9926L187.838 58.9224C187.521 59.1163 187.213 59.3206 186.913 59.5353L187.645 60.5543ZM188.489 59.9946C188.796 59.8093 189.111 59.6361 189.433 59.4752L188.872 58.3533C188.521 58.529 188.177 58.718 187.841 58.9204L188.489 59.9946ZM191.431 58.6624C192.104 58.4461 192.805 58.2741 193.535 58.1469L193.32 56.9113C192.535 57.048 191.778 57.2335 191.047 57.4683L191.431 58.6624ZM195.7 57.9056C196.059 57.8867 196.423 57.8772 196.794 57.8772V56.623C196.402 56.623 196.015 56.633 195.634 56.6532L195.7 57.9056ZM196.794 57.8772C197.166 57.8772 197.531 57.8865 197.889 57.9051L197.954 56.6526C197.573 56.6328 197.187 56.623 196.794 56.623V57.8772ZM200.056 58.1433C200.788 58.2696 201.489 58.4405 202.16 58.6557L202.543 57.4613C201.814 57.2276 201.056 57.0431 200.269 56.9074L200.056 58.1433ZM204.156 59.4696C204.477 59.6316 204.791 59.8059 205.096 59.9926L205.75 58.9224C205.415 58.7178 205.072 58.5268 204.72 58.3495L204.156 59.4696ZM205.099 59.9946C205.393 60.1717 205.678 60.358 205.954 60.5536L206.679 59.5299C206.377 59.3164 206.067 59.1132 205.747 58.9204L205.099 59.9946ZM207.524 61.8539C208.01 62.3235 208.462 62.8315 208.879 63.3781L209.876 62.6171C209.421 62.0212 208.928 61.466 208.396 60.952L207.524 61.8539ZM210.002 65.089C210.168 65.3839 210.326 65.6878 210.477 66.0006L211.607 65.4565C211.445 65.1203 211.275 64.7928 211.095 64.4741L210.002 65.089ZM210.481 66.009C210.657 66.3599 210.82 66.7204 210.972 67.0906L212.132 66.6147C211.969 66.2162 211.793 65.8273 211.603 65.4481L210.481 66.009ZM211.721 69.3527C211.916 70.1027 212.07 70.8862 212.184 71.7036L213.426 71.5307C213.306 70.6683 213.143 69.8373 212.935 69.0379L211.721 69.3527ZM212.397 74.1022C212.413 74.4983 212.422 74.9011 212.422 75.3108H213.676C213.676 74.8841 213.667 74.4638 213.65 74.0497L212.397 74.1022ZM212.422 75.3108C212.422 75.7241 212.413 76.1309 212.396 76.5311L213.649 76.584C213.667 76.1656 213.676 75.7412 213.676 75.3108H212.422ZM212.18 78.9537C212.066 79.7772 211.91 80.569 211.715 81.3296L212.929 81.6421C213.138 80.8332 213.302 79.9947 213.423 79.1267L212.18 78.9537ZM210.966 83.6201C210.815 83.9951 210.653 84.3612 210.478 84.7184L211.606 85.2683C211.793 84.8839 211.968 84.4906 212.13 84.0885L210.966 83.6201ZM210.48 84.7157C210.325 85.0295 210.162 85.3346 209.992 85.631L211.08 86.2548C211.264 85.9355 211.438 85.6076 211.604 85.271L210.48 84.7157ZM208.849 87.3509C208.426 87.9009 207.97 88.4134 207.48 88.8886L208.353 89.7887C208.887 89.2706 209.384 88.7127 209.843 88.1153L208.849 87.3509ZM205.902 90.2091C205.624 90.4087 205.338 90.5992 205.044 90.7808L205.702 91.8485C206.022 91.6514 206.332 91.4444 206.634 91.2272L205.902 90.2091ZM205.046 90.7795C204.742 90.9654 204.43 91.139 204.111 91.3004L204.676 92.4199C205.026 92.2433 205.367 92.0533 205.7 91.8497L205.046 90.7795ZM202.127 92.1134C201.46 92.3291 200.762 92.5005 200.036 92.6272L200.251 93.8627C201.033 93.7265 201.787 93.5414 202.513 93.307L202.127 92.1134ZM197.882 92.8668C197.526 92.8855 197.163 92.8949 196.794 92.8949V94.1492C197.184 94.1492 197.569 94.1392 197.948 94.1193L197.882 92.8668ZM196.794 89.2326C196.391 89.2326 195.999 89.217 195.618 89.186L195.516 90.4361C195.932 90.47 196.358 90.4868 196.794 90.4868V89.2326ZM193.327 88.7777C192.567 88.5587 191.861 88.2614 191.209 87.8865L190.584 88.974C191.328 89.4013 192.127 89.7373 192.98 89.9829L193.327 88.7777ZM189.38 86.503C189.109 86.2388 188.849 85.9547 188.601 85.6505L187.629 86.4433C187.907 86.7836 188.199 87.1033 188.506 87.4019L189.38 86.503ZM188.603 85.6536C188.325 85.3081 188.066 84.9434 187.827 84.5593L186.763 85.2226C187.028 85.6488 187.316 86.0548 187.626 86.4402L188.603 85.6536ZM186.662 82.1263C186.37 81.3107 186.139 80.4312 185.97 79.4866L184.736 79.707C184.915 80.7139 185.163 81.6616 185.481 82.5489L186.662 82.1263ZM185.666 76.7476C185.643 76.297 185.632 75.8348 185.632 75.361H184.377C184.377 75.8551 184.389 76.3386 184.413 76.8113L185.666 76.7476ZM185.632 75.361C185.632 74.8883 185.643 74.4277 185.665 73.979L184.413 73.9163C184.389 74.3869 184.377 74.8684 184.377 75.361H185.632ZM185.965 71.2493C186.132 70.305 186.361 69.429 186.65 68.62L185.47 68.1973C185.154 69.0791 184.908 70.0241 184.73 71.0309L185.965 71.2493ZM187.816 66.2042C188.057 65.8235 188.318 65.4638 188.598 65.1248L187.632 64.3257C187.317 64.7063 187.025 65.1089 186.757 65.5333L187.816 66.2042ZM188.601 65.1216C188.849 64.8174 189.109 64.5333 189.38 64.2692L188.506 63.3702C188.199 63.6689 187.907 63.9885 187.629 64.3288L188.601 65.1216ZM191.209 62.8857C191.861 62.5108 192.567 62.2134 193.327 61.9945L192.98 60.7892C192.127 61.0348 191.328 61.3708 190.584 61.7982L191.209 62.8857ZM195.618 61.5861C195.999 61.5551 196.391 61.5395 196.794 61.5395V60.2853C196.358 60.2853 195.932 60.3021 195.516 60.336L195.618 61.5861ZM196.794 61.5395C197.202 61.5395 197.598 61.5549 197.983 61.5855L198.083 60.3352C197.663 60.3019 197.234 60.2853 196.794 60.2853V61.5395ZM200.301 61.9893C201.074 62.207 201.789 62.5029 202.448 62.8761L203.066 61.7846C202.315 61.3595 201.506 61.0257 200.641 60.7821L200.301 61.9893ZM204.3 64.263C204.575 64.5289 204.838 64.815 205.088 65.1216L206.06 64.3288C205.779 63.9851 205.483 63.6626 205.172 63.3615L204.3 64.263ZM205.09 65.1248C205.371 65.4638 205.631 65.8235 205.872 66.2042L206.932 65.5333C206.663 65.1089 206.372 64.7063 206.057 64.3257L205.09 65.1248ZM207.038 68.62C207.328 69.429 207.557 70.305 207.724 71.2493L208.959 71.0309C208.781 70.0241 208.535 69.0791 208.219 68.1973L207.038 68.62ZM208.023 73.979C208.046 74.4277 208.057 74.8883 208.057 75.361H209.311C209.311 74.8684 209.299 74.3869 209.276 73.9163L208.023 73.979ZM208.057 75.361C208.057 75.8354 208.046 76.2978 208.023 76.7485L209.276 76.8114C209.299 76.3388 209.311 75.8553 209.311 75.361H208.057ZM207.722 79.4894C207.554 80.4366 207.324 81.3165 207.034 82.1305L208.215 82.552C208.531 81.6658 208.778 80.7173 208.957 79.7079L207.722 79.4894ZM205.868 84.5612C205.627 84.9446 205.367 85.3077 205.088 85.6505L206.06 86.4433C206.373 86.0595 206.663 85.6542 206.931 85.2276L205.868 84.5612ZM205.088 85.6505C204.838 85.9571 204.575 86.2432 204.3 86.5092L205.172 87.4107C205.483 87.1095 205.779 86.787 206.06 86.4433L205.088 85.6505ZM202.448 87.896C201.789 88.2692 201.074 88.5652 200.301 88.7828L200.641 89.99C201.506 89.7464 202.315 89.4127 203.066 88.9876L202.448 87.896ZM197.983 89.1867C197.598 89.2172 197.202 89.2326 196.794 89.2326V90.4868C197.234 90.4868 197.663 90.4703 198.083 90.437L197.983 89.1867ZM225.42 93.0705H224.793C224.793 93.4169 225.074 93.6976 225.42 93.6976V93.0705ZM225.42 57.7016V57.0745C225.074 57.0745 224.793 57.3553 224.793 57.7016H225.42ZM248.147 60.3605L247.732 60.8306L247.736 60.8339L248.147 60.3605ZM249.05 74.3576L248.574 73.9487L248.57 73.9543L249.05 74.3576ZM243.03 77.6186L242.911 77.0027C242.633 77.0563 242.425 77.2903 242.404 77.5732C242.384 77.8562 242.556 78.1177 242.824 78.2109L243.03 77.6186ZM246.993 81.5317L246.439 81.8264L246.441 81.8293L246.993 81.5317ZM253.214 93.0705V93.6976C253.435 93.6976 253.639 93.5815 253.752 93.392C253.866 93.2024 253.871 92.9673 253.766 92.7729L253.214 93.0705ZM248.699 93.0705L248.147 93.3684C248.256 93.5712 248.468 93.6976 248.699 93.6976V93.0705ZM242.578 81.7324L243.13 81.4345L243.128 81.4312L242.578 81.7324ZM239.919 78.8728L240.2 78.3119L240.2 78.3119L239.919 78.8728ZM229.534 78.1203V77.4931C229.188 77.4931 228.907 77.7739 228.907 78.1203H229.534ZM229.534 93.0705V93.6976C229.881 93.6976 230.161 93.4169 230.161 93.0705H229.534ZM229.534 74.8593H228.907C228.907 75.2056 229.188 75.4864 229.534 75.4864V74.8593ZM229.534 61.1131V60.486C229.188 60.486 228.907 60.7667 228.907 61.1131H229.534ZM226.048 91.8074C226.048 91.461 225.767 91.1802 225.42 91.1802C225.074 91.1802 224.793 91.461 224.793 91.8074H226.048ZM224.793 89.281C224.793 89.6273 225.074 89.9081 225.42 89.9081C225.767 89.9081 226.048 89.6273 226.048 89.281H224.793ZM226.048 86.7546C226.048 86.4083 225.767 86.1275 225.42 86.1275C225.074 86.1275 224.793 86.4083 224.793 86.7546H226.048ZM224.793 84.2283C224.793 84.5746 225.074 84.8554 225.42 84.8554C225.767 84.8554 226.048 84.5746 226.048 84.2283H224.793ZM226.048 81.7019C226.048 81.3556 225.767 81.0748 225.42 81.0748C225.074 81.0748 224.793 81.3556 224.793 81.7019H226.048ZM224.793 79.1756C224.793 79.5219 225.074 79.8027 225.42 79.8027C225.767 79.8027 226.048 79.5219 226.048 79.1756H224.793ZM226.048 76.6492C226.048 76.3029 225.767 76.0221 225.42 76.0221C225.074 76.0221 224.793 76.3029 224.793 76.6492H226.048ZM224.793 74.1229C224.793 74.4692 225.074 74.75 225.42 74.75C225.767 74.75 226.048 74.4692 226.048 74.1229H224.793ZM226.048 71.5965C226.048 71.2502 225.767 70.9694 225.42 70.9694C225.074 70.9694 224.793 71.2502 224.793 71.5965H226.048ZM224.793 69.0702C224.793 69.4165 225.074 69.6973 225.42 69.6973C225.767 69.6973 226.048 69.4165 226.048 69.0702H224.793ZM226.048 66.5438C226.048 66.1975 225.767 65.9167 225.42 65.9167C225.074 65.9167 224.793 66.1975 224.793 66.5438H226.048ZM224.793 64.0175C224.793 64.3638 225.074 64.6446 225.42 64.6446C225.767 64.6446 226.048 64.3638 226.048 64.0175H224.793ZM226.048 61.4911C226.048 61.1448 225.767 60.864 225.42 60.864C225.074 60.864 224.793 61.1448 224.793 61.4911H226.048ZM224.793 58.9648C224.793 59.3111 225.074 59.5919 225.42 59.5919C225.767 59.5919 226.048 59.3111 226.048 58.9648H224.793ZM226.587 58.3287C226.933 58.3287 227.214 58.0479 227.214 57.7016C227.214 57.3553 226.933 57.0745 226.587 57.0745V58.3287ZM228.92 57.0745C228.573 57.0745 228.293 57.3553 228.293 57.7016C228.293 58.0479 228.573 58.3287 228.92 58.3287V57.0745ZM231.253 58.3287C231.599 58.3287 231.88 58.0479 231.88 57.7016C231.88 57.3553 231.599 57.0745 231.253 57.0745V58.3287ZM233.585 57.0745C233.239 57.0745 232.958 57.3553 232.958 57.7016C232.958 58.0479 233.239 58.3287 233.585 58.3287V57.0745ZM235.918 58.3287C236.265 58.3287 236.545 58.0479 236.545 57.7016C236.545 57.3553 236.265 57.0745 235.918 57.0745V58.3287ZM238.251 57.0745C237.905 57.0745 237.624 57.3553 237.624 57.7016C237.624 58.0479 237.905 58.3287 238.251 58.3287V57.0745ZM240.552 58.357C240.897 58.3746 241.192 58.1086 241.21 57.7627C241.228 57.4168 240.962 57.1221 240.616 57.1044L240.552 58.357ZM243.012 57.3746C242.671 57.3126 242.345 57.5385 242.282 57.8793C242.22 58.22 242.446 58.5465 242.787 58.6086L243.012 57.3746ZM244.929 59.1865C245.253 59.3074 245.615 59.1423 245.736 58.8178C245.856 58.4932 245.691 58.1321 245.367 58.0112L244.929 59.1865ZM247.572 59.1287C247.285 58.9361 246.895 59.0132 246.703 59.301C246.51 59.5888 246.587 59.9783 246.875 60.171L247.572 59.1287ZM248.433 61.5187C248.664 61.7762 249.061 61.7973 249.319 61.5657C249.576 61.3342 249.597 60.9377 249.366 60.6801L248.433 61.5187ZM250.653 62.5417C250.493 62.2343 250.115 62.1143 249.807 62.2737C249.5 62.4332 249.38 62.8117 249.539 63.1191L250.653 62.5417ZM250.232 64.9561C250.318 65.2916 250.66 65.4938 250.996 65.4078C251.331 65.3217 251.533 64.98 251.447 64.6445L250.232 64.9561ZM251.796 66.8362C251.771 66.4907 251.47 66.2309 251.125 66.2558C250.78 66.2807 250.52 66.581 250.545 66.9264L251.796 66.8362ZM250.472 69.5764C250.424 69.9195 250.664 70.2361 251.007 70.2835C251.35 70.331 251.667 70.0913 251.714 69.7482L250.472 69.5764ZM250.586 73.242C250.753 72.9388 250.643 72.5573 250.34 72.3899C250.036 72.2225 249.655 72.3326 249.488 72.6358L250.586 73.242ZM247.41 75.078C247.138 75.2924 247.091 75.6867 247.305 75.9587C247.52 76.2307 247.914 76.2775 248.186 76.0631L247.41 75.078ZM244.916 77.7798C245.245 77.6715 245.424 77.317 245.316 76.988C245.208 76.659 244.853 76.4802 244.524 76.5885L244.916 77.7798ZM243.939 78.7819C244.224 78.9784 244.615 78.9066 244.811 78.6214C245.008 78.3362 244.936 77.9457 244.651 77.7492L243.939 78.7819ZM246.775 79.9565C246.579 79.6708 246.189 79.5979 245.903 79.7937C245.618 79.9895 245.545 80.3798 245.741 80.6655L246.775 79.9565ZM246.959 82.7909C247.124 83.0958 247.504 83.2097 247.809 83.0453C248.114 82.8809 248.228 82.5006 248.063 82.1957L246.959 82.7909ZM249.1 84.1188C248.936 83.814 248.555 83.7001 248.251 83.8644C247.946 84.0288 247.832 84.4092 247.996 84.714L249.1 84.1188ZM249.033 86.6372C249.197 86.942 249.578 87.0559 249.883 86.8916C250.187 86.7272 250.301 86.3468 250.137 86.042L249.033 86.6372ZM251.174 87.9651C251.009 87.6602 250.629 87.5463 250.324 87.7107C250.019 87.8751 249.905 88.2554 250.07 88.5603L251.174 87.9651ZM251.107 90.4834C251.271 90.7883 251.651 90.9022 251.956 90.7378C252.261 90.5735 252.375 90.1931 252.211 89.8882L251.107 90.4834ZM253.247 91.8114C253.083 91.5065 252.703 91.3926 252.398 91.557C252.093 91.7213 251.979 92.1017 252.143 92.4066L253.247 91.8114ZM252.085 92.4434C251.739 92.4434 251.458 92.7242 251.458 93.0705C251.458 93.4169 251.739 93.6976 252.085 93.6976V92.4434ZM249.827 93.6976C250.174 93.6976 250.455 93.4169 250.455 93.0705C250.455 92.7242 250.174 92.4434 249.827 92.4434V93.6976ZM248.74 91.8278C248.576 91.523 248.196 91.4093 247.891 91.5738C247.586 91.7384 247.472 92.1188 247.637 92.4236L248.74 91.8278ZM246.617 90.5339C246.781 90.8387 247.162 90.9524 247.466 90.7878C247.771 90.6233 247.885 90.2429 247.72 89.9381L246.617 90.5339ZM246.7 88.0484C246.536 87.7436 246.155 87.6299 245.851 87.7945C245.546 87.959 245.432 88.3394 245.597 88.6442L246.7 88.0484ZM244.577 86.7545C244.741 87.0593 245.121 87.173 245.426 87.0085C245.731 86.8439 245.845 86.4635 245.68 86.1587L244.577 86.7545ZM244.66 84.269C244.496 83.9643 244.115 83.8506 243.81 84.0151C243.506 84.1796 243.392 84.5601 243.556 84.8648L244.66 84.269ZM242.536 82.9751C242.701 83.2799 243.081 83.3936 243.386 83.2291C243.691 83.0646 243.805 82.6841 243.64 82.3794L242.536 82.9751ZM242.583 80.5339C242.388 80.2472 241.998 80.1722 241.712 80.3665C241.425 80.5608 241.35 80.9508 241.544 81.2375L242.583 80.5339ZM240.354 79.899C240.623 80.1171 241.018 80.0757 241.236 79.8066C241.454 79.5375 241.412 79.1426 241.143 78.9246L240.354 79.899ZM239.154 77.9013C238.823 77.8015 238.473 77.9893 238.373 78.321C238.273 78.6526 238.461 79.0024 238.793 79.1023L239.154 77.9013ZM236.927 78.7808C237.273 78.8057 237.573 78.5458 237.598 78.2004C237.623 77.855 237.363 77.5547 237.018 77.5298L236.927 78.7808ZM234.35 77.4931C234.004 77.4931 233.723 77.7739 233.723 78.1203C233.723 78.4666 234.004 78.7474 234.35 78.7474V77.4931ZM231.14 78.7474C231.486 78.7474 231.767 78.4666 231.767 78.1203C231.767 77.7739 231.486 77.4931 231.14 77.4931V78.7474ZM228.907 79.3661C228.907 79.7125 229.188 79.9932 229.534 79.9932C229.881 79.9932 230.161 79.7125 230.161 79.3661H228.907ZM230.161 81.8578C230.161 81.5115 229.881 81.2307 229.534 81.2307C229.188 81.2307 228.907 81.5115 228.907 81.8578H230.161ZM228.907 84.3495C228.907 84.6959 229.188 84.9766 229.534 84.9766C229.881 84.9766 230.161 84.6959 230.161 84.3495H228.907ZM230.161 86.8412C230.161 86.4949 229.881 86.2141 229.534 86.2141C229.188 86.2141 228.907 86.4949 228.907 86.8412H230.161ZM228.907 89.333C228.907 89.6793 229.188 89.9601 229.534 89.9601C229.881 89.9601 230.161 89.6793 230.161 89.333H228.907ZM230.161 91.8247C230.161 91.4783 229.881 91.1976 229.534 91.1976C229.188 91.1976 228.907 91.4783 228.907 91.8247H230.161ZM228.506 92.4434C228.159 92.4434 227.879 92.7242 227.879 93.0705C227.879 93.4169 228.159 93.6976 228.506 93.6976V92.4434ZM226.449 93.6976C226.795 93.6976 227.076 93.4169 227.076 93.0705C227.076 92.7242 226.795 92.4434 226.449 92.4434V93.6976ZM230.161 73.7138C230.161 73.3674 229.881 73.0867 229.534 73.0867C229.188 73.0867 228.907 73.3674 228.907 73.7138H230.161ZM228.907 71.4227C228.907 71.7691 229.188 72.0498 229.534 72.0498C229.881 72.0498 230.161 71.7691 230.161 71.4227H228.907ZM230.161 69.1317C230.161 68.7854 229.881 68.5046 229.534 68.5046C229.188 68.5046 228.907 68.7854 228.907 69.1317H230.161ZM228.907 66.8407C228.907 67.187 229.188 67.4678 229.534 67.4678C229.881 67.4678 230.161 67.187 230.161 66.8407H228.907ZM230.161 64.5496C230.161 64.2033 229.881 63.9225 229.534 63.9225C229.188 63.9225 228.907 64.2033 228.907 64.5496H230.161ZM228.907 62.2586C228.907 62.6049 229.188 62.8857 229.534 62.8857C229.881 62.8857 230.161 62.6049 230.161 62.2586H228.907ZM230.694 61.7402C231.041 61.7402 231.322 61.4594 231.322 61.1131C231.322 60.7667 231.041 60.486 230.694 60.486V61.7402ZM233.015 60.486C232.668 60.486 232.388 60.7667 232.388 61.1131C232.388 61.4594 232.668 61.7402 233.015 61.7402V60.486ZM235.335 61.7402C235.681 61.7402 235.962 61.4594 235.962 61.1131C235.962 60.7667 235.681 60.486 235.335 60.486V61.7402ZM237.655 60.486C237.309 60.486 237.028 60.7667 237.028 61.1131C237.028 61.4594 237.309 61.7402 237.655 61.7402V60.486ZM240.299 61.8021C240.644 61.8325 240.949 61.5775 240.979 61.2325C241.009 60.8874 240.754 60.5831 240.409 60.5527L240.299 61.8021ZM243.583 61.2521C243.261 61.1248 242.897 61.2828 242.77 61.6049C242.642 61.927 242.8 62.2913 243.123 62.4185L243.583 61.2521ZM245.345 63.9906C245.562 64.2608 245.956 64.3042 246.227 64.0875C246.497 63.8708 246.54 63.4762 246.324 63.2059L245.345 63.9906ZM247.643 66.299C247.586 65.9573 247.263 65.7262 246.922 65.7829C246.58 65.8396 246.349 66.1625 246.406 66.5041L247.643 66.299ZM246.407 69.3804C246.352 69.7223 246.584 70.0443 246.926 70.0997C247.268 70.155 247.59 69.9227 247.645 69.5808L246.407 69.3804ZM246.348 72.6992C246.561 72.4262 246.512 72.0321 246.239 71.819C245.966 71.6059 245.572 71.6544 245.359 71.9274L246.348 72.6992ZM243.143 73.5351C242.822 73.6651 242.667 74.0308 242.797 74.3518C242.927 74.6728 243.292 74.8276 243.613 74.6976L243.143 73.5351ZM240.42 75.4177C240.765 75.3866 241.02 75.0818 240.989 74.7369C240.958 74.3919 240.653 74.1375 240.308 74.1686L240.42 75.4177ZM237.655 74.2322C237.309 74.2322 237.028 74.513 237.028 74.8593C237.028 75.2056 237.309 75.4864 237.655 75.4864V74.2322ZM235.335 75.4864C235.681 75.4864 235.962 75.2056 235.962 74.8593C235.962 74.513 235.681 74.2322 235.335 74.2322V75.4864ZM233.015 74.2322C232.668 74.2322 232.388 74.513 232.388 74.8593C232.388 75.2056 232.668 75.4864 233.015 75.4864V74.2322ZM230.694 75.4864C231.041 75.4864 231.322 75.2056 231.322 74.8593C231.322 74.513 231.041 74.2322 230.694 74.2322V75.4864ZM226.048 93.0705V91.8074H224.793V93.0705H226.048ZM226.048 89.281V86.7546H224.793V89.281H226.048ZM226.048 84.2283V81.7019H224.793V84.2283H226.048ZM226.048 79.1756V76.6492H224.793V79.1756H226.048ZM226.048 74.1229V71.5965H224.793V74.1229H226.048ZM226.048 69.0702V66.5438H224.793V69.0702H226.048ZM226.048 64.0175V61.4911H224.793V64.0175H226.048ZM226.048 58.9648V57.7016H224.793V58.9648H226.048ZM225.42 58.3287H226.587V57.0745H225.42V58.3287ZM228.92 58.3287H231.253V57.0745H228.92V58.3287ZM233.585 58.3287H235.918V57.0745H233.585V58.3287ZM238.251 58.3287H239.417V57.0745H238.251V58.3287ZM239.417 58.3287C239.806 58.3287 240.184 58.3382 240.552 58.357L240.616 57.1044C240.226 57.0844 239.826 57.0745 239.417 57.0745V58.3287ZM242.787 58.6086C243.561 58.7494 244.274 58.9426 244.929 59.1865L245.367 58.0112C244.636 57.7389 243.85 57.5273 243.012 57.3746L242.787 58.6086ZM246.875 60.171C247.178 60.3742 247.464 60.5941 247.732 60.8305L248.562 59.8905C248.252 59.6164 247.922 59.3625 247.572 59.1287L246.875 60.171ZM247.736 60.8339C247.985 61.0506 248.217 61.2789 248.433 61.5187L249.366 60.6801C249.115 60.4013 248.846 60.137 248.558 59.8872L247.736 60.8339ZM249.539 63.1191C249.831 63.6815 250.062 64.2932 250.232 64.9561L251.447 64.6445C251.255 63.8954 250.991 63.1939 250.653 62.5417L249.539 63.1191ZM250.545 66.9264C250.568 67.2531 250.58 67.5896 250.58 67.936H251.834C251.834 67.561 251.821 67.1944 251.796 66.8362L250.545 66.9264ZM250.58 67.936C250.58 68.5098 250.544 69.0564 250.472 69.5764L251.714 69.7482C251.794 69.167 251.834 68.5627 251.834 67.936H250.58ZM249.488 72.6358C249.229 73.1032 248.925 73.5407 248.574 73.9487L249.525 74.7665C249.932 74.2936 250.286 73.7853 250.586 73.242L249.488 72.6358ZM248.57 73.9543C248.223 74.3672 247.836 74.7417 247.41 75.078L248.186 76.0631C248.679 75.674 249.128 75.2399 249.53 74.761L248.57 73.9543ZM244.524 76.5885C244.019 76.7547 243.482 76.893 242.911 77.0027L243.148 78.2344C243.767 78.1154 244.357 77.964 244.916 77.7798L244.524 76.5885ZM242.824 78.2109C243.207 78.3443 243.579 78.5336 243.939 78.7819L244.651 77.7492C244.203 77.4406 243.731 77.1986 243.236 77.0263L242.824 78.2109ZM245.741 80.6655C245.981 81.0163 246.214 81.4029 246.439 81.8264L247.547 81.2371C247.302 80.7769 247.045 80.3497 246.775 79.9565L245.741 80.6655ZM246.441 81.8293L246.959 82.7909L248.063 82.1957L247.545 81.2341L246.441 81.8293ZM247.996 84.714L249.033 86.6372L250.137 86.042L249.1 84.1188L247.996 84.714ZM250.07 88.5603L251.107 90.4834L252.211 89.8882L251.174 87.9651L250.07 88.5603ZM252.143 92.4066L252.662 93.3681L253.766 92.7729L253.247 91.8114L252.143 92.4066ZM253.214 92.4434H252.085V93.6976H253.214V92.4434ZM249.827 92.4434H248.699V93.6976H249.827V92.4434ZM249.251 92.7726L248.74 91.8278L247.637 92.4236L248.147 93.3684L249.251 92.7726ZM247.72 89.9381L246.7 88.0484L245.597 88.6442L246.617 90.5339L247.72 89.9381ZM245.68 86.1587L244.66 84.269L243.556 84.8648L244.577 86.7545L245.68 86.1587ZM243.64 82.3794L243.13 81.4345L242.026 82.0303L242.536 82.9751L243.64 82.3794ZM243.128 81.4312C242.953 81.1122 242.772 80.8129 242.583 80.5339L241.544 81.2375C241.709 81.4808 241.871 81.746 242.028 82.0336L243.128 81.4312ZM241.143 78.9246C240.844 78.6817 240.529 78.4767 240.2 78.3119L239.639 79.4337C239.881 79.5549 240.12 79.7092 240.354 79.899L241.143 78.9246ZM240.2 78.3119C239.876 78.1498 239.527 78.0134 239.154 77.9013L238.793 79.1023C239.103 79.1959 239.385 79.3068 239.639 79.4337L240.2 78.3119ZM237.018 77.5298C236.677 77.5053 236.323 77.4931 235.956 77.4931V78.7474C236.296 78.7474 236.62 78.7586 236.927 78.7808L237.018 77.5298ZM235.956 77.4931H234.35V78.7474H235.956V77.4931ZM231.14 77.4931H229.534V78.7474H231.14V77.4931ZM228.907 78.1203V79.3661H230.161V78.1203H228.907ZM228.907 81.8578V84.3495H230.161V81.8578H228.907ZM228.907 86.8412V89.333H230.161V86.8412H228.907ZM228.907 91.8247V93.0705H230.161V91.8247H228.907ZM229.534 92.4434H228.506V93.6976H229.534V92.4434ZM226.449 92.4434H225.42V93.6976H226.449V92.4434ZM230.161 74.8593V73.7138H228.907V74.8593H230.161ZM230.161 71.4227V69.1317H228.907V71.4227H230.161ZM230.161 66.8407V64.5496H228.907V66.8407H230.161ZM230.161 62.2586V61.1131H228.907V62.2586H230.161ZM229.534 61.7402H230.694V60.486H229.534V61.7402ZM233.015 61.7402H235.335V60.486H233.015V61.7402ZM237.655 61.7402H238.815V60.486H237.655V61.7402ZM238.815 61.7402C239.338 61.7402 239.833 61.761 240.299 61.8021L240.409 60.5527C239.903 60.5081 239.371 60.486 238.815 60.486V61.7402ZM243.123 62.4185C244.078 62.796 244.81 63.3236 245.345 63.9906L246.324 63.2059C245.634 62.3456 244.712 61.6979 243.583 61.2521L243.123 62.4185ZM246.406 66.5041C246.479 66.9454 246.516 67.4223 246.516 67.936H247.771C247.771 67.3617 247.729 66.8156 247.643 66.299L246.406 66.5041ZM246.516 67.936C246.516 68.4537 246.479 68.9348 246.407 69.3804L247.645 69.5808C247.729 69.0616 247.771 68.513 247.771 67.936H246.516ZM245.359 71.9274C244.826 72.61 244.096 73.1492 243.143 73.5351L243.613 74.6976C244.742 74.2404 245.662 73.5775 246.348 72.6992L245.359 71.9274ZM240.308 74.1686C239.839 74.2108 239.341 74.2322 238.815 74.2322V75.4864C239.375 75.4864 239.91 75.4637 240.42 75.4177L240.308 74.1686ZM238.815 74.2322H237.655V75.4864H238.815V74.2322ZM235.335 74.2322H233.015V75.4864H235.335V74.2322ZM230.694 74.2322H229.534V75.4864H230.694V74.2322ZM263.997 93.0705H263.37C263.37 93.4169 263.651 93.6976 263.997 93.6976V93.0705ZM263.997 57.7016V57.0745C263.651 57.0745 263.37 57.3553 263.37 57.7016H263.997ZM286.322 57.7016H286.95C286.95 57.3553 286.669 57.0745 286.322 57.0745V57.7016ZM286.322 61.1632V61.7904C286.669 61.7904 286.95 61.5096 286.95 61.1632H286.322ZM268.011 61.1632V60.5361C267.665 60.5361 267.384 60.8169 267.384 61.1632H268.011ZM268.011 73.4044H267.384C267.384 73.7507 267.665 74.0315 268.011 74.0315V73.4044ZM285.269 73.4044H285.896C285.896 73.0581 285.615 72.7773 285.269 72.7773V73.4044ZM285.269 76.866V77.4931C285.615 77.4931 285.896 77.2124 285.896 76.866H285.269ZM268.011 76.866V76.2389C267.665 76.2389 267.384 76.5197 267.384 76.866H268.011ZM268.011 89.6089H267.384C267.384 89.9552 267.665 90.236 268.011 90.236V89.6089ZM286.322 89.6089H286.95C286.95 89.2625 286.669 88.9818 286.322 88.9818V89.6089ZM286.322 93.0705V93.6976C286.669 93.6976 286.95 93.4169 286.95 93.0705H286.322ZM264.625 91.8074C264.625 91.461 264.344 91.1802 263.997 91.1802C263.651 91.1802 263.37 91.461 263.37 91.8074H264.625ZM263.37 89.281C263.37 89.6273 263.651 89.9081 263.997 89.9081C264.344 89.9081 264.625 89.6273 264.625 89.281H263.37ZM264.625 86.7546C264.625 86.4083 264.344 86.1275 263.997 86.1275C263.651 86.1275 263.37 86.4083 263.37 86.7546H264.625ZM263.37 84.2283C263.37 84.5746 263.651 84.8554 263.997 84.8554C264.344 84.8554 264.625 84.5746 264.625 84.2283H263.37ZM264.625 81.7019C264.625 81.3556 264.344 81.0748 263.997 81.0748C263.651 81.0748 263.37 81.3556 263.37 81.7019H264.625ZM263.37 79.1756C263.37 79.5219 263.651 79.8027 263.997 79.8027C264.344 79.8027 264.625 79.5219 264.625 79.1756H263.37ZM264.625 76.6492C264.625 76.3029 264.344 76.0221 263.997 76.0221C263.651 76.0221 263.37 76.3029 263.37 76.6492H264.625ZM263.37 74.1229C263.37 74.4692 263.651 74.75 263.997 74.75C264.344 74.75 264.625 74.4692 264.625 74.1229H263.37ZM264.625 71.5965C264.625 71.2502 264.344 70.9694 263.997 70.9694C263.651 70.9694 263.37 71.2502 263.37 71.5965H264.625ZM263.37 69.0702C263.37 69.4165 263.651 69.6973 263.997 69.6973C264.344 69.6973 264.625 69.4165 264.625 69.0702H263.37ZM264.625 66.5438C264.625 66.1975 264.344 65.9167 263.997 65.9167C263.651 65.9167 263.37 66.1975 263.37 66.5438H264.625ZM263.37 64.0175C263.37 64.3638 263.651 64.6446 263.997 64.6446C264.344 64.6446 264.625 64.3638 264.625 64.0175H263.37ZM264.625 61.4911C264.625 61.1448 264.344 60.864 263.997 60.864C263.651 60.864 263.37 61.1448 263.37 61.4911H264.625ZM263.37 58.9648C263.37 59.3111 263.651 59.5919 263.997 59.5919C264.344 59.5919 264.625 59.3111 264.625 58.9648H263.37ZM265.393 58.3287C265.739 58.3287 266.02 58.0479 266.02 57.7016C266.02 57.3553 265.739 57.0745 265.393 57.0745V58.3287ZM268.183 57.0745C267.837 57.0745 267.556 57.3553 267.556 57.7016C267.556 58.0479 267.837 58.3287 268.183 58.3287V57.0745ZM270.974 58.3287C271.32 58.3287 271.601 58.0479 271.601 57.7016C271.601 57.3553 271.32 57.0745 270.974 57.0745V58.3287ZM273.765 57.0745C273.418 57.0745 273.138 57.3553 273.138 57.7016C273.138 58.0479 273.418 58.3287 273.765 58.3287V57.0745ZM276.555 58.3287C276.902 58.3287 277.182 58.0479 277.182 57.7016C277.182 57.3553 276.902 57.0745 276.555 57.0745V58.3287ZM279.346 57.0745C279 57.0745 278.719 57.3553 278.719 57.7016C278.719 58.0479 279 58.3287 279.346 58.3287V57.0745ZM282.137 58.3287C282.483 58.3287 282.764 58.0479 282.764 57.7016C282.764 57.3553 282.483 57.0745 282.137 57.0745V58.3287ZM284.927 57.0745C284.581 57.0745 284.3 57.3553 284.3 57.7016C284.3 58.0479 284.581 58.3287 284.927 58.3287V57.0745ZM285.695 58.567C285.695 58.9134 285.976 59.1941 286.322 59.1941C286.669 59.1941 286.95 58.9134 286.95 58.567H285.695ZM286.95 60.2978C286.95 59.9515 286.669 59.6707 286.322 59.6707C285.976 59.6707 285.695 59.9515 285.695 60.2978H286.95ZM285.178 60.5361C284.832 60.5361 284.551 60.8169 284.551 61.1632C284.551 61.5096 284.832 61.7904 285.178 61.7904V60.5361ZM282.889 61.7904C283.235 61.7904 283.516 61.5096 283.516 61.1632C283.516 60.8169 283.235 60.5361 282.889 60.5361V61.7904ZM280.6 60.5361C280.254 60.5361 279.973 60.8169 279.973 61.1632C279.973 61.5096 280.254 61.7904 280.6 61.7904V60.5361ZM278.311 61.7904C278.657 61.7904 278.938 61.5096 278.938 61.1632C278.938 60.8169 278.657 60.5361 278.311 60.5361V61.7904ZM276.022 60.5361C275.676 60.5361 275.395 60.8169 275.395 61.1632C275.395 61.5096 275.676 61.7904 276.022 61.7904V60.5361ZM273.733 61.7904C274.08 61.7904 274.36 61.5096 274.36 61.1632C274.36 60.8169 274.08 60.5361 273.733 60.5361V61.7904ZM271.444 60.5361C271.098 60.5361 270.817 60.8169 270.817 61.1632C270.817 61.5096 271.098 61.7904 271.444 61.7904V60.5361ZM269.155 61.7904C269.502 61.7904 269.782 61.5096 269.782 61.1632C269.782 60.8169 269.502 60.5361 269.155 60.5361V61.7904ZM267.384 62.6934C267.384 63.0397 267.665 63.3205 268.011 63.3205C268.357 63.3205 268.638 63.0397 268.638 62.6934H267.384ZM268.638 65.7537C268.638 65.4073 268.357 65.1266 268.011 65.1266C267.665 65.1266 267.384 65.4073 267.384 65.7537H268.638ZM267.384 68.814C267.384 69.1603 267.665 69.4411 268.011 69.4411C268.357 69.4411 268.638 69.1603 268.638 68.814H267.384ZM268.638 71.8743C268.638 71.5279 268.357 71.2471 268.011 71.2471C267.665 71.2471 267.384 71.5279 267.384 71.8743H268.638ZM269.449 74.0315C269.795 74.0315 270.076 73.7507 270.076 73.4044C270.076 73.0581 269.795 72.7773 269.449 72.7773V74.0315ZM272.325 72.7773C271.979 72.7773 271.698 73.0581 271.698 73.4044C271.698 73.7507 271.979 74.0315 272.325 74.0315V72.7773ZM275.202 74.0315C275.548 74.0315 275.829 73.7507 275.829 73.4044C275.829 73.0581 275.548 72.7773 275.202 72.7773V74.0315ZM278.078 72.7773C277.732 72.7773 277.451 73.0581 277.451 73.4044C277.451 73.7507 277.732 74.0315 278.078 74.0315V72.7773ZM280.954 74.0315C281.301 74.0315 281.582 73.7507 281.582 73.4044C281.582 73.0581 281.301 72.7773 280.954 72.7773V74.0315ZM283.831 72.7773C283.484 72.7773 283.204 73.0581 283.204 73.4044C283.204 73.7507 283.484 74.0315 283.831 74.0315V72.7773ZM284.642 74.2698C284.642 74.6162 284.923 74.8969 285.269 74.8969C285.615 74.8969 285.896 74.6162 285.896 74.2698H284.642ZM285.896 76.0006C285.896 75.6543 285.615 75.3735 285.269 75.3735C284.923 75.3735 284.642 75.6543 284.642 76.0006H285.896ZM283.831 76.2389C283.484 76.2389 283.204 76.5197 283.204 76.866C283.204 77.2124 283.484 77.4931 283.831 77.4931V76.2389ZM280.954 77.4931C281.301 77.4931 281.582 77.2124 281.582 76.866C281.582 76.5197 281.301 76.2389 280.954 76.2389V77.4931ZM278.078 76.2389C277.732 76.2389 277.451 76.5197 277.451 76.866C277.451 77.2124 277.732 77.4931 278.078 77.4931V76.2389ZM275.202 77.4931C275.548 77.4931 275.829 77.2124 275.829 76.866C275.829 76.5197 275.548 76.2389 275.202 76.2389V77.4931ZM272.325 76.2389C271.979 76.2389 271.698 76.5197 271.698 76.866C271.698 77.2124 271.979 77.4931 272.325 77.4931V76.2389ZM269.449 77.4931C269.795 77.4931 270.076 77.2124 270.076 76.866C270.076 76.5197 269.795 76.2389 269.449 76.2389V77.4931ZM267.384 77.9279C267.384 78.2743 267.665 78.5551 268.011 78.5551C268.357 78.5551 268.638 78.2743 268.638 77.9279H267.384ZM268.638 80.0518C268.638 79.7054 268.357 79.4246 268.011 79.4246C267.665 79.4246 267.384 79.7054 267.384 80.0518H268.638ZM267.384 82.1756C267.384 82.5219 267.665 82.8027 268.011 82.8027C268.357 82.8027 268.638 82.5219 268.638 82.1756H267.384ZM268.638 84.2994C268.638 83.953 268.357 83.6723 268.011 83.6723C267.665 83.6723 267.384 83.953 267.384 84.2994H268.638ZM267.384 86.4232C267.384 86.7695 267.665 87.0503 268.011 87.0503C268.357 87.0503 268.638 86.7695 268.638 86.4232H267.384ZM268.638 88.547C268.638 88.2006 268.357 87.9199 268.011 87.9199C267.665 87.9199 267.384 88.2006 267.384 88.547H268.638ZM269.155 90.236C269.502 90.236 269.782 89.9552 269.782 89.6089C269.782 89.2625 269.502 88.9818 269.155 88.9818V90.236ZM271.444 88.9818C271.098 88.9818 270.817 89.2625 270.817 89.6089C270.817 89.9552 271.098 90.236 271.444 90.236V88.9818ZM273.733 90.236C274.08 90.236 274.36 89.9552 274.36 89.6089C274.36 89.2625 274.08 88.9818 273.733 88.9818V90.236ZM276.022 88.9818C275.676 88.9818 275.395 89.2625 275.395 89.6089C275.395 89.9552 275.676 90.236 276.022 90.236V88.9818ZM278.311 90.236C278.657 90.236 278.938 89.9552 278.938 89.6089C278.938 89.2625 278.657 88.9818 278.311 88.9818V90.236ZM280.6 88.9818C280.254 88.9818 279.973 89.2625 279.973 89.6089C279.973 89.9552 280.254 90.236 280.6 90.236V88.9818ZM282.889 90.236C283.235 90.236 283.516 89.9552 283.516 89.6089C283.516 89.2625 283.235 88.9818 282.889 88.9818V90.236ZM285.178 88.9818C284.832 88.9818 284.551 89.2625 284.551 89.6089C284.551 89.9552 284.832 90.236 285.178 90.236V88.9818ZM285.695 90.4743C285.695 90.8206 285.976 91.1014 286.322 91.1014C286.669 91.1014 286.95 90.8206 286.95 90.4743H285.695ZM286.95 92.2051C286.95 91.8588 286.669 91.578 286.322 91.578C285.976 91.578 285.695 91.8588 285.695 92.2051H286.95ZM284.927 92.4434C284.581 92.4434 284.3 92.7242 284.3 93.0705C284.3 93.4169 284.581 93.6976 284.927 93.6976V92.4434ZM282.137 93.6976C282.483 93.6976 282.764 93.4169 282.764 93.0705C282.764 92.7242 282.483 92.4434 282.137 92.4434V93.6976ZM279.346 92.4434C279 92.4434 278.719 92.7242 278.719 93.0705C278.719 93.4169 279 93.6976 279.346 93.6976V92.4434ZM276.555 93.6976C276.902 93.6976 277.182 93.4169 277.182 93.0705C277.182 92.7242 276.902 92.4434 276.555 92.4434V93.6976ZM273.765 92.4434C273.418 92.4434 273.138 92.7242 273.138 93.0705C273.138 93.4169 273.418 93.6976 273.765 93.6976V92.4434ZM270.974 93.6976C271.32 93.6976 271.601 93.4169 271.601 93.0705C271.601 92.7242 271.32 92.4434 270.974 92.4434V93.6976ZM268.183 92.4434C267.837 92.4434 267.556 92.7242 267.556 93.0705C267.556 93.4169 267.837 93.6976 268.183 93.6976V92.4434ZM265.393 93.6976C265.739 93.6976 266.02 93.4169 266.02 93.0705C266.02 92.7242 265.739 92.4434 265.393 92.4434V93.6976ZM264.625 93.0705V91.8074H263.37V93.0705H264.625ZM264.625 89.281V86.7546H263.37V89.281H264.625ZM264.625 84.2283V81.7019H263.37V84.2283H264.625ZM264.625 79.1756V76.6492H263.37V79.1756H264.625ZM264.625 74.1229V71.5965H263.37V74.1229H264.625ZM264.625 69.0702V66.5438H263.37V69.0702H264.625ZM264.625 64.0175V61.4911H263.37V64.0175H264.625ZM264.625 58.9648V57.7016H263.37V58.9648H264.625ZM263.997 58.3287H265.393V57.0745H263.997V58.3287ZM268.183 58.3287H270.974V57.0745H268.183V58.3287ZM273.765 58.3287H276.555V57.0745H273.765V58.3287ZM279.346 58.3287H282.137V57.0745H279.346V58.3287ZM284.927 58.3287H286.322V57.0745H284.927V58.3287ZM285.695 57.7016V58.567H286.95V57.7016H285.695ZM285.695 60.2978V61.1632H286.95V60.2978H285.695ZM286.322 60.5361H285.178V61.7904H286.322V60.5361ZM282.889 60.5361H280.6V61.7904H282.889V60.5361ZM278.311 60.5361H276.022V61.7904H278.311V60.5361ZM273.733 60.5361H271.444V61.7904H273.733V60.5361ZM269.155 60.5361H268.011V61.7904H269.155V60.5361ZM267.384 61.1632V62.6934H268.638V61.1632H267.384ZM267.384 65.7537V68.814H268.638V65.7537H267.384ZM267.384 71.8743V73.4044H268.638V71.8743H267.384ZM268.011 74.0315H269.449V72.7773H268.011V74.0315ZM272.325 74.0315H275.202V72.7773H272.325V74.0315ZM278.078 74.0315H280.954V72.7773H278.078V74.0315ZM283.831 74.0315H285.269V72.7773H283.831V74.0315ZM284.642 73.4044V74.2698H285.896V73.4044H284.642ZM284.642 76.0006V76.866H285.896V76.0006H284.642ZM285.269 76.2389H283.831V77.4931H285.269V76.2389ZM280.954 76.2389H278.078V77.4931H280.954V76.2389ZM275.202 76.2389H272.325V77.4931H275.202V76.2389ZM269.449 76.2389H268.011V77.4931H269.449V76.2389ZM267.384 76.866V77.9279H268.638V76.866H267.384ZM267.384 80.0518V82.1756H268.638V80.0518H267.384ZM267.384 84.2994V86.4232H268.638V84.2994H267.384ZM267.384 88.547V89.6089H268.638V88.547H267.384ZM268.011 90.236H269.155V88.9818H268.011V90.236ZM271.444 90.236H273.733V88.9818H271.444V90.236ZM276.022 90.236H278.311V88.9818H276.022V90.236ZM280.6 90.236H282.889V88.9818H280.6V90.236ZM285.178 90.236H286.322V88.9818H285.178V90.236ZM285.695 89.6089V90.4743H286.95V89.6089H285.695ZM285.695 92.2051V93.0705H286.95V92.2051H285.695ZM286.322 92.4434H284.927V93.6976H286.322V92.4434ZM282.137 92.4434H279.346V93.6976H282.137V92.4434ZM276.555 92.4434H273.765V93.6976H276.555V92.4434ZM270.974 92.4434H268.183V93.6976H270.974V92.4434ZM265.393 92.4434H263.997V93.6976H265.393V92.4434Z" fill="black"/>
<defs>
<clipPath id="clip0_118_16104">
<rect width="58.0569" height="82.6495" fill="white" transform="translate(0 22.0816) rotate(-21.6298)"/>
</clipPath>
</defs>
</svg>
